<mxfile host="app.diagrams.net" modified="2024-05-31T12:48:34.167Z" agent="Mozilla/5.0 (Windows NT 10.0; Win64; x64) AppleWebKit/537.36 (KHTML, like Gecko) Chrome/122.0.0.0 Safari/537.36" etag="yutadngzs_7XmrLV1F6a" version="24.4.13" type="device">
  <diagram name="Σελίδα-1" id="ZUXt4QFUeV6v1A_uienU">
    <mxGraphModel dx="2169" dy="1357" grid="1" gridSize="10" guides="1" tooltips="1" connect="1" arrows="1" fold="1" page="1" pageScale="1" pageWidth="1169" pageHeight="827" math="0" shadow="0">
      <root>
        <mxCell id="0" />
        <mxCell id="1" parent="0" />
        <mxCell id="FgBpNW55SPB5Wy7BsFvd-25" value="&lt;font style=&quot;font-size: 16px;&quot;&gt;index&lt;/font&gt;" style="text;html=1;align=center;verticalAlign=middle;resizable=0;points=[];autosize=1;strokeColor=none;fillColor=none;fontColor=#97D077;fontSize=18;" parent="1" vertex="1">
          <mxGeometry x="60.85000000000002" y="145" width="60" height="40" as="geometry" />
        </mxCell>
        <mxCell id="FgBpNW55SPB5Wy7BsFvd-48" value="" style="endArrow=classic;startArrow=classic;html=1;rounded=0;endSize=2;startSize=2;dashed=1;dashPattern=1 2;strokeWidth=2;exitX=1.051;exitY=0.523;exitDx=0;exitDy=0;exitPerimeter=0;" parent="1" source="FgBpNW55SPB5Wy7BsFvd-158" edge="1">
          <mxGeometry width="50" height="50" relative="1" as="geometry">
            <mxPoint x="250" y="164.67000000000002" as="sourcePoint" />
            <mxPoint x="460" y="165" as="targetPoint" />
          </mxGeometry>
        </mxCell>
        <mxCell id="FgBpNW55SPB5Wy7BsFvd-50" value="Text" style="edgeLabel;html=1;align=center;verticalAlign=middle;resizable=0;points=[];" parent="FgBpNW55SPB5Wy7BsFvd-48" vertex="1" connectable="0">
          <mxGeometry x="-0.0055" y="1" relative="1" as="geometry">
            <mxPoint as="offset" />
          </mxGeometry>
        </mxCell>
        <mxCell id="FgBpNW55SPB5Wy7BsFvd-51" value="&lt;font style=&quot;font-size: 16px;&quot;&gt;Data&lt;/font&gt;" style="edgeLabel;html=1;align=center;verticalAlign=middle;resizable=0;points=[];fontSize=16;" parent="FgBpNW55SPB5Wy7BsFvd-48" vertex="1" connectable="0">
          <mxGeometry x="-0.006" y="1" relative="1" as="geometry">
            <mxPoint as="offset" />
          </mxGeometry>
        </mxCell>
        <mxCell id="W2uyPhcnVnDmRBekrULC-90" style="edgeStyle=orthogonalEdgeStyle;rounded=0;orthogonalLoop=1;jettySize=auto;html=1;endArrow=oval;endFill=1;startArrow=classic;startFill=1;exitX=0;exitY=0.5;exitDx=0;exitDy=0;" parent="1" source="FgBpNW55SPB5Wy7BsFvd-53" edge="1">
          <mxGeometry relative="1" as="geometry">
            <mxPoint x="210" y="740" as="targetPoint" />
            <Array as="points">
              <mxPoint x="210" y="854" />
              <mxPoint x="210" y="740" />
            </Array>
            <mxPoint x="220.00000000000023" y="827.5" as="sourcePoint" />
          </mxGeometry>
        </mxCell>
        <mxCell id="FgBpNW55SPB5Wy7BsFvd-53" value="&lt;font style=&quot;font-size: 20px;&quot;&gt;=&lt;/font&gt;" style="ellipse;whiteSpace=wrap;html=1;aspect=fixed;fontSize=14;" parent="1" vertex="1">
          <mxGeometry x="230" y="818.5" width="70" height="70" as="geometry" />
        </mxCell>
        <mxCell id="W2uyPhcnVnDmRBekrULC-94" style="edgeStyle=orthogonalEdgeStyle;rounded=0;orthogonalLoop=1;jettySize=auto;html=1;exitX=1;exitY=0.5;exitDx=0;exitDy=0;exitPerimeter=0;" parent="1" source="FgBpNW55SPB5Wy7BsFvd-54" edge="1">
          <mxGeometry relative="1" as="geometry">
            <mxPoint x="201" y="1024" as="targetPoint" />
          </mxGeometry>
        </mxCell>
        <mxCell id="FgBpNW55SPB5Wy7BsFvd-54" value="+" style="shape=or;whiteSpace=wrap;html=1;rotation=90;" parent="1" vertex="1">
          <mxGeometry x="180" y="904" width="42" height="109" as="geometry" />
        </mxCell>
        <mxCell id="FgBpNW55SPB5Wy7BsFvd-62" value="" style="group" parent="1" vertex="1" connectable="0">
          <mxGeometry x="290" y="-110" width="440" height="40" as="geometry" />
        </mxCell>
        <mxCell id="FgBpNW55SPB5Wy7BsFvd-57" value="" style="rounded=0;whiteSpace=wrap;html=1;" parent="FgBpNW55SPB5Wy7BsFvd-62" vertex="1">
          <mxGeometry width="424.40821618886486" height="32" as="geometry" />
        </mxCell>
        <mxCell id="FgBpNW55SPB5Wy7BsFvd-60" value="" style="endArrow=none;html=1;rounded=0;entryX=0.25;entryY=0;entryDx=0;entryDy=0;exitX=0.25;exitY=1;exitDx=0;exitDy=0;" parent="FgBpNW55SPB5Wy7BsFvd-62" edge="1">
          <mxGeometry width="50" height="50" relative="1" as="geometry">
            <mxPoint x="220.69227241820974" y="32" as="sourcePoint" />
            <mxPoint x="220.69227241821008" as="targetPoint" />
          </mxGeometry>
        </mxCell>
        <mxCell id="FgBpNW55SPB5Wy7BsFvd-61" value="" style="endArrow=none;html=1;rounded=0;entryX=0.25;entryY=0;entryDx=0;entryDy=0;exitX=0.25;exitY=1;exitDx=0;exitDy=0;" parent="FgBpNW55SPB5Wy7BsFvd-62" edge="1">
          <mxGeometry width="50" height="50" relative="1" as="geometry">
            <mxPoint x="310.0002443035373" y="31" as="sourcePoint" />
            <mxPoint x="310.0002443035373" y="-1" as="targetPoint" />
          </mxGeometry>
        </mxCell>
        <mxCell id="FgBpNW55SPB5Wy7BsFvd-63" value="&lt;font style=&quot;font-size: 18px;&quot;&gt;Tag&lt;/font&gt;" style="text;html=1;align=center;verticalAlign=middle;resizable=0;points=[];autosize=1;strokeColor=none;fillColor=none;fontSize=18;" parent="FgBpNW55SPB5Wy7BsFvd-62" vertex="1">
          <mxGeometry x="80.00164323777297" y="-4" width="50" height="40" as="geometry" />
        </mxCell>
        <mxCell id="FgBpNW55SPB5Wy7BsFvd-64" value="&lt;font style=&quot;font-size: 18px;&quot;&gt;Index&lt;/font&gt;" style="text;html=1;align=center;verticalAlign=middle;resizable=0;points=[];autosize=1;strokeColor=none;fillColor=none;fontSize=18;" parent="FgBpNW55SPB5Wy7BsFvd-62" vertex="1">
          <mxGeometry x="230.85401812115558" y="-4" width="70" height="40" as="geometry" />
        </mxCell>
        <mxCell id="FgBpNW55SPB5Wy7BsFvd-65" value="&lt;font style=&quot;font-size: 17px;&quot;&gt;Block&amp;nbsp;&lt;span style=&quot;background-color: initial; font-size: 17px;&quot;&gt;offset&lt;/span&gt;&lt;/font&gt;" style="text;html=1;align=center;verticalAlign=middle;resizable=0;points=[];autosize=1;strokeColor=none;fillColor=none;fontSize=17;" parent="FgBpNW55SPB5Wy7BsFvd-62" vertex="1">
          <mxGeometry x="314.40674641450966" y="1" width="110" height="30" as="geometry" />
        </mxCell>
        <mxCell id="FgBpNW55SPB5Wy7BsFvd-103" value="&lt;div&gt;&lt;div style=&quot;font-size: 10px;&quot;&gt;&lt;br&gt;&lt;/div&gt;&lt;/div&gt;" style="rounded=0;whiteSpace=wrap;html=1;fillColor=#d5e8d4;strokeColor=#82b366;" parent="1" vertex="1">
          <mxGeometry x="70" y="180" width="50" height="170" as="geometry" />
        </mxCell>
        <mxCell id="FgBpNW55SPB5Wy7BsFvd-110" value="" style="endArrow=none;html=1;rounded=0;exitX=0;exitY=0.5;exitDx=0;exitDy=0;entryX=1;entryY=0.5;entryDx=0;entryDy=0;fillColor=#d5e8d4;strokeColor=#82b366;" parent="1" source="FgBpNW55SPB5Wy7BsFvd-103" target="FgBpNW55SPB5Wy7BsFvd-103" edge="1">
          <mxGeometry width="50" height="50" relative="1" as="geometry">
            <mxPoint x="80" y="210" as="sourcePoint" />
            <mxPoint x="130" y="160" as="targetPoint" />
          </mxGeometry>
        </mxCell>
        <mxCell id="FgBpNW55SPB5Wy7BsFvd-111" value="" style="endArrow=none;html=1;rounded=0;exitX=-0.017;exitY=0.253;exitDx=0;exitDy=0;entryX=1;entryY=0.25;entryDx=0;entryDy=0;exitPerimeter=0;fillColor=#d5e8d4;strokeColor=#82b366;elbow=vertical;" parent="1" source="FgBpNW55SPB5Wy7BsFvd-103" target="FgBpNW55SPB5Wy7BsFvd-103" edge="1">
          <mxGeometry width="50" height="50" relative="1" as="geometry">
            <mxPoint x="90" y="215" as="sourcePoint" />
            <mxPoint x="120" y="215" as="targetPoint" />
          </mxGeometry>
        </mxCell>
        <mxCell id="FgBpNW55SPB5Wy7BsFvd-112" value="" style="endArrow=none;html=1;rounded=0;exitX=0;exitY=0.75;exitDx=0;exitDy=0;entryX=1;entryY=0.75;entryDx=0;entryDy=0;fillColor=#d5e8d4;strokeColor=#82b366;" parent="1" source="FgBpNW55SPB5Wy7BsFvd-103" target="FgBpNW55SPB5Wy7BsFvd-103" edge="1">
          <mxGeometry width="50" height="50" relative="1" as="geometry">
            <mxPoint x="80" y="230" as="sourcePoint" />
            <mxPoint x="111" y="230" as="targetPoint" />
          </mxGeometry>
        </mxCell>
        <mxCell id="FgBpNW55SPB5Wy7BsFvd-118" value="&lt;h6&gt;&lt;font style=&quot;font-size: 30px;&quot; color=&quot;#336600&quot;&gt;0&lt;/font&gt;&lt;/h6&gt;" style="text;html=1;align=center;verticalAlign=middle;resizable=0;points=[];autosize=1;strokeColor=none;fillColor=none;" parent="1" vertex="1">
          <mxGeometry x="75" y="160" width="40" height="90" as="geometry" />
        </mxCell>
        <mxCell id="FgBpNW55SPB5Wy7BsFvd-122" value="&lt;h6&gt;&lt;font style=&quot;font-size: 30px;&quot; color=&quot;#336600&quot;&gt;1&lt;/font&gt;&lt;/h6&gt;" style="text;html=1;align=center;verticalAlign=middle;resizable=0;points=[];autosize=1;strokeColor=none;fillColor=none;" parent="1" vertex="1">
          <mxGeometry x="75" y="200" width="40" height="90" as="geometry" />
        </mxCell>
        <mxCell id="FgBpNW55SPB5Wy7BsFvd-124" value="&lt;h6&gt;&lt;font style=&quot;font-size: 30px;&quot; color=&quot;#336600&quot;&gt;3&lt;/font&gt;&lt;/h6&gt;" style="text;html=1;align=center;verticalAlign=middle;resizable=0;points=[];autosize=1;strokeColor=none;fillColor=none;" parent="1" vertex="1">
          <mxGeometry x="75" y="280" width="40" height="90" as="geometry" />
        </mxCell>
        <mxCell id="FgBpNW55SPB5Wy7BsFvd-125" value="&lt;h6&gt;&lt;font style=&quot;font-size: 30px;&quot; color=&quot;#336600&quot;&gt;2&lt;/font&gt;&lt;/h6&gt;" style="text;html=1;align=center;verticalAlign=middle;resizable=0;points=[];autosize=1;strokeColor=none;fillColor=none;" parent="1" vertex="1">
          <mxGeometry x="75" y="240" width="40" height="90" as="geometry" />
        </mxCell>
        <mxCell id="FgBpNW55SPB5Wy7BsFvd-127" value="&lt;h6&gt;&lt;font style=&quot;font-size: 30px;&quot; color=&quot;#336600&quot;&gt;.&lt;/font&gt;&lt;/h6&gt;" style="text;html=1;align=center;verticalAlign=middle;resizable=0;points=[];autosize=1;strokeColor=none;fillColor=none;" parent="1" vertex="1">
          <mxGeometry x="80" y="310" width="30" height="90" as="geometry" />
        </mxCell>
        <mxCell id="FgBpNW55SPB5Wy7BsFvd-128" value="&lt;h6&gt;&lt;font style=&quot;font-size: 30px;&quot; color=&quot;#336600&quot;&gt;.&lt;/font&gt;&lt;/h6&gt;" style="text;html=1;align=center;verticalAlign=middle;resizable=0;points=[];autosize=1;strokeColor=none;fillColor=none;" parent="1" vertex="1">
          <mxGeometry x="80" y="320" width="30" height="90" as="geometry" />
        </mxCell>
        <mxCell id="FgBpNW55SPB5Wy7BsFvd-129" value="&lt;h6&gt;&lt;font style=&quot;font-size: 30px;&quot; color=&quot;#336600&quot;&gt;.&lt;/font&gt;&lt;/h6&gt;" style="text;html=1;align=center;verticalAlign=middle;resizable=0;points=[];autosize=1;strokeColor=none;fillColor=none;" parent="1" vertex="1">
          <mxGeometry x="80" y="330" width="30" height="90" as="geometry" />
        </mxCell>
        <mxCell id="FgBpNW55SPB5Wy7BsFvd-136" value="&lt;div&gt;&lt;div style=&quot;font-size: 10px;&quot;&gt;&lt;br&gt;&lt;/div&gt;&lt;/div&gt;" style="rounded=0;whiteSpace=wrap;html=1;fillColor=#d5e8d4;strokeColor=#82b366;" parent="1" vertex="1">
          <mxGeometry x="70.85000000000002" y="400" width="50" height="170" as="geometry" />
        </mxCell>
        <mxCell id="FgBpNW55SPB5Wy7BsFvd-137" value="" style="endArrow=none;html=1;rounded=0;exitX=0;exitY=0.5;exitDx=0;exitDy=0;entryX=1;entryY=0.5;entryDx=0;entryDy=0;fillColor=#d5e8d4;strokeColor=#82b366;" parent="1" source="FgBpNW55SPB5Wy7BsFvd-136" target="FgBpNW55SPB5Wy7BsFvd-136" edge="1">
          <mxGeometry width="50" height="50" relative="1" as="geometry">
            <mxPoint x="80.85000000000002" y="430" as="sourcePoint" />
            <mxPoint x="130.85000000000002" y="380" as="targetPoint" />
          </mxGeometry>
        </mxCell>
        <mxCell id="FgBpNW55SPB5Wy7BsFvd-138" value="" style="endArrow=none;html=1;rounded=0;exitX=-0.017;exitY=0.253;exitDx=0;exitDy=0;entryX=1;entryY=0.25;entryDx=0;entryDy=0;exitPerimeter=0;fillColor=#d5e8d4;strokeColor=#82b366;elbow=vertical;" parent="1" source="FgBpNW55SPB5Wy7BsFvd-136" target="FgBpNW55SPB5Wy7BsFvd-136" edge="1">
          <mxGeometry width="50" height="50" relative="1" as="geometry">
            <mxPoint x="90.85000000000002" y="435" as="sourcePoint" />
            <mxPoint x="120.85000000000002" y="435" as="targetPoint" />
          </mxGeometry>
        </mxCell>
        <mxCell id="FgBpNW55SPB5Wy7BsFvd-139" value="" style="endArrow=none;html=1;rounded=0;exitX=0;exitY=0.75;exitDx=0;exitDy=0;entryX=1;entryY=0.75;entryDx=0;entryDy=0;fillColor=#d5e8d4;strokeColor=#82b366;" parent="1" source="FgBpNW55SPB5Wy7BsFvd-136" target="FgBpNW55SPB5Wy7BsFvd-136" edge="1">
          <mxGeometry width="50" height="50" relative="1" as="geometry">
            <mxPoint x="80.85000000000002" y="450" as="sourcePoint" />
            <mxPoint x="111.85000000000002" y="450" as="targetPoint" />
          </mxGeometry>
        </mxCell>
        <mxCell id="FgBpNW55SPB5Wy7BsFvd-140" value="&lt;h6&gt;&lt;br&gt;&lt;/h6&gt;" style="text;html=1;align=center;verticalAlign=middle;resizable=0;points=[];autosize=1;strokeColor=none;fillColor=none;" parent="1" vertex="1">
          <mxGeometry x="90" y="395" width="20" height="60" as="geometry" />
        </mxCell>
        <mxCell id="FgBpNW55SPB5Wy7BsFvd-141" value="&lt;h6&gt;&lt;font color=&quot;#336600&quot;&gt;&lt;span style=&quot;font-size: 30px;&quot;&gt;61&lt;/span&gt;&lt;/font&gt;&lt;/h6&gt;" style="text;html=1;align=center;verticalAlign=middle;resizable=0;points=[];autosize=1;strokeColor=none;fillColor=none;" parent="1" vertex="1">
          <mxGeometry x="65.85000000000002" y="420" width="60" height="90" as="geometry" />
        </mxCell>
        <mxCell id="FgBpNW55SPB5Wy7BsFvd-142" value="&lt;h6&gt;&lt;font color=&quot;#336600&quot;&gt;&lt;span style=&quot;font-size: 30px;&quot;&gt;63&lt;/span&gt;&lt;/font&gt;&lt;/h6&gt;" style="text;html=1;align=center;verticalAlign=middle;resizable=0;points=[];autosize=1;strokeColor=none;fillColor=none;" parent="1" vertex="1">
          <mxGeometry x="295" y="500" width="60" height="90" as="geometry" />
        </mxCell>
        <mxCell id="FgBpNW55SPB5Wy7BsFvd-143" value="&lt;h6&gt;&lt;font color=&quot;#336600&quot;&gt;&lt;span style=&quot;font-size: 30px;&quot;&gt;62&lt;/span&gt;&lt;/font&gt;&lt;/h6&gt;" style="text;html=1;align=center;verticalAlign=middle;resizable=0;points=[];autosize=1;strokeColor=none;fillColor=none;" parent="1" vertex="1">
          <mxGeometry x="65" y="460" width="60" height="90" as="geometry" />
        </mxCell>
        <mxCell id="FgBpNW55SPB5Wy7BsFvd-144" value="&lt;h6&gt;&lt;font style=&quot;font-size: 30px;&quot; color=&quot;#336600&quot;&gt;60&lt;/font&gt;&lt;/h6&gt;" style="text;html=1;align=center;verticalAlign=middle;resizable=0;points=[];autosize=1;strokeColor=none;fillColor=none;" parent="1" vertex="1">
          <mxGeometry x="65" y="380" width="60" height="90" as="geometry" />
        </mxCell>
        <mxCell id="FgBpNW55SPB5Wy7BsFvd-146" value="&lt;div&gt;&lt;div style=&quot;font-size: 10px;&quot;&gt;&lt;br&gt;&lt;/div&gt;&lt;/div&gt;" style="rounded=0;whiteSpace=wrap;html=1;fillColor=#f5f5f5;fontColor=#333333;strokeColor=#666666;points=[[0,0,0,0,0],[0,0.25,0,0,0],[0,0.5,0,0,0],[0,0.75,0,0,0],[0,1,0,0,0],[0.13,0,0,0,0],[0.14,1,0,0,0],[0.28,0,0,0,0],[0.28,1,0,0,0],[0.43,0,0,0,0],[0.43,1,0,0,0],[0.51,0,0,0,0],[0.51,1,0,0,0],[0.58,0,0,0,0],[0.58,1,0,0,0],[0.66,0,0,0,0],[0.66,1,0,0,0],[0.72,0,0,0,0],[0.72,1,0,0,0],[0.8,0,0,0,0],[0.8,1,0,0,0],[0.87,0,0,0,0],[0.87,1,0,0,0],[0.93,0,0,0,0],[0.93,1,0,0,0],[1,0,0,0,0],[1,0.25,0,0,0],[1,0.5,0,0,0],[1,0.75,0,0,0],[1,1,0,0,0]];" parent="1" vertex="1">
          <mxGeometry x="115.85000000000002" y="180" width="344.15" height="170" as="geometry" />
        </mxCell>
        <mxCell id="FgBpNW55SPB5Wy7BsFvd-147" value="" style="endArrow=none;html=1;rounded=0;exitX=0;exitY=0.5;exitDx=0;exitDy=0;entryX=1;entryY=0.5;entryDx=0;entryDy=0;fillColor=#f5f5f5;" parent="1" source="FgBpNW55SPB5Wy7BsFvd-146" target="FgBpNW55SPB5Wy7BsFvd-146" edge="1">
          <mxGeometry width="50" height="50" relative="1" as="geometry">
            <mxPoint x="130.85000000000002" y="210" as="sourcePoint" />
            <mxPoint x="180.85000000000002" y="160" as="targetPoint" />
          </mxGeometry>
        </mxCell>
        <mxCell id="FgBpNW55SPB5Wy7BsFvd-148" value="" style="endArrow=none;html=1;rounded=0;entryX=1;entryY=0.25;entryDx=0;entryDy=0;fillColor=#f5f5f5;elbow=vertical;exitX=0;exitY=0.25;exitDx=0;exitDy=0;" parent="1" source="FgBpNW55SPB5Wy7BsFvd-146" target="FgBpNW55SPB5Wy7BsFvd-146" edge="1">
          <mxGeometry width="50" height="50" relative="1" as="geometry">
            <mxPoint x="120" y="223" as="sourcePoint" />
            <mxPoint x="170.85000000000002" y="215" as="targetPoint" />
          </mxGeometry>
        </mxCell>
        <mxCell id="FgBpNW55SPB5Wy7BsFvd-149" value="" style="endArrow=none;html=1;rounded=0;exitX=0;exitY=0.75;exitDx=0;exitDy=0;entryX=1;entryY=0.75;entryDx=0;entryDy=0;fillColor=#f5f5f5;" parent="1" source="FgBpNW55SPB5Wy7BsFvd-146" target="FgBpNW55SPB5Wy7BsFvd-146" edge="1">
          <mxGeometry width="50" height="50" relative="1" as="geometry">
            <mxPoint x="130.85000000000002" y="230" as="sourcePoint" />
            <mxPoint x="161.85000000000002" y="230" as="targetPoint" />
          </mxGeometry>
        </mxCell>
        <mxCell id="FgBpNW55SPB5Wy7BsFvd-156" value="&lt;font style=&quot;font-size: 16px;&quot; color=&quot;#000000&quot;&gt;valid&lt;/font&gt;" style="text;html=1;align=center;verticalAlign=middle;resizable=0;points=[];autosize=1;strokeColor=none;fillColor=none;fontColor=#97D077;fontSize=18;" parent="1" vertex="1">
          <mxGeometry x="110" y="145" width="60" height="40" as="geometry" />
        </mxCell>
        <mxCell id="FgBpNW55SPB5Wy7BsFvd-157" value="&lt;font color=&quot;#000000&quot; style=&quot;font-size: 16px;&quot;&gt;dirty&lt;/font&gt;" style="text;html=1;align=center;verticalAlign=middle;resizable=0;points=[];autosize=1;strokeColor=none;fillColor=none;fontColor=#97D077;fontSize=18;" parent="1" vertex="1">
          <mxGeometry x="160" y="145" width="50" height="40" as="geometry" />
        </mxCell>
        <mxCell id="FgBpNW55SPB5Wy7BsFvd-158" value="&lt;font color=&quot;#000000&quot; style=&quot;font-size: 16px;&quot;&gt;tag&lt;/font&gt;" style="text;html=1;align=center;verticalAlign=middle;resizable=0;points=[];autosize=1;strokeColor=none;fillColor=none;fontColor=#97D077;fontSize=18;" parent="1" vertex="1">
          <mxGeometry x="210" y="145" width="50" height="40" as="geometry" />
        </mxCell>
        <mxCell id="FgBpNW55SPB5Wy7BsFvd-162" value="" style="endArrow=none;html=1;rounded=0;exitX=0.28;exitY=1;exitDx=0;exitDy=0;exitPerimeter=0;entryX=0.28;entryY=0;entryDx=0;entryDy=0;entryPerimeter=0;" parent="1" source="FgBpNW55SPB5Wy7BsFvd-146" target="FgBpNW55SPB5Wy7BsFvd-146" edge="1">
          <mxGeometry width="50" height="50" relative="1" as="geometry">
            <mxPoint x="201" y="349" as="sourcePoint" />
            <mxPoint x="200" y="180" as="targetPoint" />
          </mxGeometry>
        </mxCell>
        <mxCell id="FgBpNW55SPB5Wy7BsFvd-163" value="" style="endArrow=none;html=1;rounded=0;exitX=0.43;exitY=1;exitDx=0;exitDy=0;exitPerimeter=0;entryX=0.43;entryY=0;entryDx=0;entryDy=0;entryPerimeter=0;" parent="1" source="FgBpNW55SPB5Wy7BsFvd-146" target="FgBpNW55SPB5Wy7BsFvd-146" edge="1">
          <mxGeometry width="50" height="50" relative="1" as="geometry">
            <mxPoint x="281.1206000000001" y="324" as="sourcePoint" />
            <mxPoint x="280" y="154" as="targetPoint" />
          </mxGeometry>
        </mxCell>
        <mxCell id="FgBpNW55SPB5Wy7BsFvd-164" value="" style="endArrow=none;html=1;rounded=0;exitX=0.14;exitY=1;exitDx=0;exitDy=0;exitPerimeter=0;entryX=0.14;entryY=0;entryDx=0;entryDy=0;entryPerimeter=0;" parent="1" source="FgBpNW55SPB5Wy7BsFvd-146" target="FgBpNW55SPB5Wy7BsFvd-146" edge="1">
          <mxGeometry width="50" height="50" relative="1" as="geometry">
            <mxPoint x="170" y="380" as="sourcePoint" />
            <mxPoint x="170" y="220" as="targetPoint" />
          </mxGeometry>
        </mxCell>
        <mxCell id="FgBpNW55SPB5Wy7BsFvd-177" value="&lt;h6&gt;&lt;font style=&quot;font-size: 30px;&quot;&gt;.&lt;/font&gt;&lt;/h6&gt;" style="text;html=1;align=center;verticalAlign=middle;resizable=0;points=[];autosize=1;strokeColor=none;fillColor=none;fontColor=default;" parent="1" vertex="1">
          <mxGeometry x="250" y="310" width="30" height="90" as="geometry" />
        </mxCell>
        <mxCell id="FgBpNW55SPB5Wy7BsFvd-178" value="&lt;h6&gt;&lt;font style=&quot;font-size: 30px;&quot;&gt;.&lt;/font&gt;&lt;/h6&gt;" style="text;html=1;align=center;verticalAlign=middle;resizable=0;points=[];autosize=1;strokeColor=none;fillColor=none;fontColor=default;" parent="1" vertex="1">
          <mxGeometry x="250" y="320" width="30" height="90" as="geometry" />
        </mxCell>
        <mxCell id="FgBpNW55SPB5Wy7BsFvd-179" value="&lt;h6&gt;&lt;font style=&quot;font-size: 30px;&quot;&gt;.&lt;/font&gt;&lt;/h6&gt;" style="text;html=1;align=center;verticalAlign=middle;resizable=0;points=[];autosize=1;strokeColor=none;fillColor=none;fontColor=default;" parent="1" vertex="1">
          <mxGeometry x="250" y="330" width="30" height="90" as="geometry" />
        </mxCell>
        <mxCell id="FgBpNW55SPB5Wy7BsFvd-224" value="&lt;font style=&quot;font-size: 20px;&quot;&gt;=&lt;/font&gt;" style="ellipse;whiteSpace=wrap;html=1;aspect=fixed;fontSize=14;" parent="1" vertex="1">
          <mxGeometry x="999.15" y="685" width="70" height="70" as="geometry" />
        </mxCell>
        <mxCell id="FgBpNW55SPB5Wy7BsFvd-226" value="" style="endArrow=none;html=1;rounded=0;exitX=0.51;exitY=1;exitDx=0;exitDy=0;exitPerimeter=0;entryX=0.51;entryY=0;entryDx=0;entryDy=0;entryPerimeter=0;strokeColor=#666666;dashed=1;dashPattern=1 2;" parent="1" source="FgBpNW55SPB5Wy7BsFvd-146" target="FgBpNW55SPB5Wy7BsFvd-146" edge="1">
          <mxGeometry width="50" height="50" relative="1" as="geometry">
            <mxPoint x="289.67999999999995" y="355" as="sourcePoint" />
            <mxPoint x="289.67999999999995" y="185" as="targetPoint" />
          </mxGeometry>
        </mxCell>
        <mxCell id="FgBpNW55SPB5Wy7BsFvd-227" value="" style="endArrow=none;html=1;rounded=0;exitX=0.58;exitY=1;exitDx=0;exitDy=0;exitPerimeter=0;entryX=0.58;entryY=0;entryDx=0;entryDy=0;entryPerimeter=0;strokeColor=#666666;dashed=1;dashPattern=1 2;" parent="1" source="FgBpNW55SPB5Wy7BsFvd-146" target="FgBpNW55SPB5Wy7BsFvd-146" edge="1">
          <mxGeometry width="50" height="50" relative="1" as="geometry">
            <mxPoint x="301" y="360" as="sourcePoint" />
            <mxPoint x="301" y="190" as="targetPoint" />
          </mxGeometry>
        </mxCell>
        <mxCell id="FgBpNW55SPB5Wy7BsFvd-228" value="" style="endArrow=none;html=1;rounded=0;entryX=0.66;entryY=0;entryDx=0;entryDy=0;entryPerimeter=0;exitX=0.66;exitY=1;exitDx=0;exitDy=0;exitPerimeter=0;strokeColor=#666666;dashed=1;dashPattern=1 2;" parent="1" source="FgBpNW55SPB5Wy7BsFvd-146" target="FgBpNW55SPB5Wy7BsFvd-146" edge="1">
          <mxGeometry width="50" height="50" relative="1" as="geometry">
            <mxPoint x="340" y="350" as="sourcePoint" />
            <mxPoint x="325" y="190" as="targetPoint" />
          </mxGeometry>
        </mxCell>
        <mxCell id="FgBpNW55SPB5Wy7BsFvd-229" value="" style="endArrow=none;html=1;rounded=0;entryX=0.72;entryY=0;entryDx=0;entryDy=0;entryPerimeter=0;exitX=0.72;exitY=1;exitDx=0;exitDy=0;exitPerimeter=0;strokeColor=#666666;dashed=1;dashPattern=1 2;" parent="1" edge="1">
          <mxGeometry width="50" height="50" relative="1" as="geometry">
            <mxPoint x="369.9979999999997" y="350" as="sourcePoint" />
            <mxPoint x="369.9979999999997" y="180" as="targetPoint" />
          </mxGeometry>
        </mxCell>
        <mxCell id="FgBpNW55SPB5Wy7BsFvd-230" value="" style="endArrow=none;html=1;rounded=0;entryX=0.8;entryY=0;entryDx=0;entryDy=0;entryPerimeter=0;exitX=0.8;exitY=1;exitDx=0;exitDy=0;exitPerimeter=0;strokeColor=#666666;dashed=1;dashPattern=1 2;" parent="1" source="FgBpNW55SPB5Wy7BsFvd-146" target="FgBpNW55SPB5Wy7BsFvd-146" edge="1">
          <mxGeometry width="50" height="50" relative="1" as="geometry">
            <mxPoint x="363" y="370" as="sourcePoint" />
            <mxPoint x="363" y="200" as="targetPoint" />
          </mxGeometry>
        </mxCell>
        <mxCell id="FgBpNW55SPB5Wy7BsFvd-231" value="" style="endArrow=none;html=1;rounded=0;entryX=0.87;entryY=0;entryDx=0;entryDy=0;entryPerimeter=0;exitX=0.87;exitY=1;exitDx=0;exitDy=0;exitPerimeter=0;strokeColor=#666666;dashed=1;dashPattern=1 2;" parent="1" source="FgBpNW55SPB5Wy7BsFvd-146" target="FgBpNW55SPB5Wy7BsFvd-146" edge="1">
          <mxGeometry width="50" height="50" relative="1" as="geometry">
            <mxPoint x="373" y="380" as="sourcePoint" />
            <mxPoint x="373" y="210" as="targetPoint" />
          </mxGeometry>
        </mxCell>
        <mxCell id="FgBpNW55SPB5Wy7BsFvd-232" value="" style="endArrow=none;html=1;rounded=0;entryX=0.93;entryY=0;entryDx=0;entryDy=0;entryPerimeter=0;exitX=0.93;exitY=1;exitDx=0;exitDy=0;exitPerimeter=0;strokeColor=#666666;dashed=1;dashPattern=1 2;" parent="1" source="FgBpNW55SPB5Wy7BsFvd-146" target="FgBpNW55SPB5Wy7BsFvd-146" edge="1">
          <mxGeometry width="50" height="50" relative="1" as="geometry">
            <mxPoint x="383" y="390" as="sourcePoint" />
            <mxPoint x="383" y="220" as="targetPoint" />
          </mxGeometry>
        </mxCell>
        <mxCell id="W2uyPhcnVnDmRBekrULC-89" style="edgeStyle=orthogonalEdgeStyle;rounded=0;orthogonalLoop=1;jettySize=auto;html=1;exitX=0.36;exitY=1;exitDx=0;exitDy=0;exitPerimeter=0;entryX=0.5;entryY=0;entryDx=0;entryDy=0;endArrow=none;endFill=0;" parent="1" source="W2uyPhcnVnDmRBekrULC-1" edge="1" target="FgBpNW55SPB5Wy7BsFvd-53">
          <mxGeometry relative="1" as="geometry">
            <mxPoint x="243" y="750" as="targetPoint" />
            <Array as="points">
              <mxPoint x="240" y="570" />
              <mxPoint x="240" y="750" />
              <mxPoint x="260" y="750" />
              <mxPoint x="260" y="819" />
            </Array>
          </mxGeometry>
        </mxCell>
        <mxCell id="W2uyPhcnVnDmRBekrULC-106" style="edgeStyle=orthogonalEdgeStyle;rounded=0;orthogonalLoop=1;jettySize=auto;html=1;exitX=0.76;exitY=0.99;exitDx=0;exitDy=0;exitPerimeter=0;endArrow=none;endFill=0;" parent="1" source="W2uyPhcnVnDmRBekrULC-1" edge="1">
          <mxGeometry relative="1" as="geometry">
            <mxPoint x="390" y="700" as="targetPoint" />
            <Array as="points">
              <mxPoint x="379" y="640" />
              <mxPoint x="390" y="640" />
            </Array>
          </mxGeometry>
        </mxCell>
        <mxCell id="W2uyPhcnVnDmRBekrULC-108" style="edgeStyle=orthogonalEdgeStyle;rounded=0;orthogonalLoop=1;jettySize=auto;html=1;exitX=0.9;exitY=1;exitDx=0;exitDy=0;exitPerimeter=0;endArrow=none;endFill=0;" parent="1" source="W2uyPhcnVnDmRBekrULC-1" target="W2uyPhcnVnDmRBekrULC-100" edge="1">
          <mxGeometry relative="1" as="geometry">
            <Array as="points">
              <mxPoint x="426" y="640" />
              <mxPoint x="440" y="640" />
            </Array>
          </mxGeometry>
        </mxCell>
        <mxCell id="W2uyPhcnVnDmRBekrULC-1" value="&lt;div&gt;&lt;div style=&quot;font-size: 10px;&quot;&gt;&lt;br&gt;&lt;/div&gt;&lt;/div&gt;" style="rounded=0;whiteSpace=wrap;html=1;fillColor=#f5f5f5;fontColor=#333333;strokeColor=#666666;points=[[0,0,0,0,0],[0,0.25,0,0,0],[0,0.5,0,0,0],[0,0.75,0,0,0],[0,1,0,0,0],[0.13,0,0,0,0],[0.14,1,0,0,0],[0.28,0,0,0,0],[0.28,1,0,0,0],[0.36,1,0,0,0],[0.4,1,0,0,1],[0.43,0,0,0,0],[0.43,1,0,0,0],[0.47,1,0,0,0],[0.51,0,0,0,0],[0.51,1,0,0,0],[0.54,1,0,0,0],[0.58,0,0,0,0],[0.58,1,0,0,0],[0.62,1,0,0,0],[0.66,0,0,0,0],[0.66,1,0,0,0],[0.69,1,0,0,1],[0.72,0,0,0,0],[0.72,1,0,0,0],[0.76,0.99,0,0,0],[0.8,0,0,0,0],[0.8,1,0,0,0],[0.84,1,0,0,0],[0.87,0,0,0,0],[0.87,1,0,0,0],[0.9,1,0,0,0],[0.93,0,0,0,0],[0.93,1,0,0,0],[0.96,1,0,0,0],[1,0,0,0,0],[1,0.25,0,0,0],[1,0.5,0,0,0],[1,0.75,0,0,0],[1,1,0,0,0]];" parent="1" vertex="1">
          <mxGeometry x="120.85000000000002" y="400" width="339.15" height="170" as="geometry" />
        </mxCell>
        <mxCell id="W2uyPhcnVnDmRBekrULC-2" value="" style="endArrow=none;html=1;rounded=0;exitX=0;exitY=0.5;exitDx=0;exitDy=0;entryX=1;entryY=0.5;entryDx=0;entryDy=0;fillColor=#f5f5f5;" parent="1" source="W2uyPhcnVnDmRBekrULC-1" target="W2uyPhcnVnDmRBekrULC-1" edge="1">
          <mxGeometry width="50" height="50" relative="1" as="geometry">
            <mxPoint x="135.85000000000002" y="430" as="sourcePoint" />
            <mxPoint x="185.85000000000002" y="380" as="targetPoint" />
          </mxGeometry>
        </mxCell>
        <mxCell id="W2uyPhcnVnDmRBekrULC-3" value="" style="endArrow=none;html=1;rounded=0;entryX=1;entryY=0.25;entryDx=0;entryDy=0;fillColor=#f5f5f5;elbow=vertical;exitX=0;exitY=0.25;exitDx=0;exitDy=0;" parent="1" source="W2uyPhcnVnDmRBekrULC-1" target="W2uyPhcnVnDmRBekrULC-1" edge="1">
          <mxGeometry width="50" height="50" relative="1" as="geometry">
            <mxPoint x="125" y="443" as="sourcePoint" />
            <mxPoint x="175.85000000000002" y="435" as="targetPoint" />
          </mxGeometry>
        </mxCell>
        <mxCell id="W2uyPhcnVnDmRBekrULC-4" value="" style="endArrow=none;html=1;rounded=0;exitX=0;exitY=0.75;exitDx=0;exitDy=0;entryX=1;entryY=0.75;entryDx=0;entryDy=0;fillColor=#f5f5f5;" parent="1" source="W2uyPhcnVnDmRBekrULC-1" target="W2uyPhcnVnDmRBekrULC-1" edge="1">
          <mxGeometry width="50" height="50" relative="1" as="geometry">
            <mxPoint x="135.85000000000002" y="450" as="sourcePoint" />
            <mxPoint x="166.85000000000002" y="450" as="targetPoint" />
          </mxGeometry>
        </mxCell>
        <mxCell id="W2uyPhcnVnDmRBekrULC-5" value="" style="endArrow=none;html=1;rounded=0;exitX=0.28;exitY=1;exitDx=0;exitDy=0;exitPerimeter=0;entryX=0.28;entryY=0;entryDx=0;entryDy=0;entryPerimeter=0;" parent="1" source="W2uyPhcnVnDmRBekrULC-1" target="W2uyPhcnVnDmRBekrULC-1" edge="1">
          <mxGeometry width="50" height="50" relative="1" as="geometry">
            <mxPoint x="206" y="569" as="sourcePoint" />
            <mxPoint x="205" y="400" as="targetPoint" />
          </mxGeometry>
        </mxCell>
        <mxCell id="W2uyPhcnVnDmRBekrULC-6" value="" style="endArrow=none;html=1;rounded=0;exitX=0.43;exitY=1;exitDx=0;exitDy=0;exitPerimeter=0;entryX=0.43;entryY=0;entryDx=0;entryDy=0;entryPerimeter=0;" parent="1" source="W2uyPhcnVnDmRBekrULC-1" target="W2uyPhcnVnDmRBekrULC-1" edge="1">
          <mxGeometry width="50" height="50" relative="1" as="geometry">
            <mxPoint x="286.1206000000001" y="544" as="sourcePoint" />
            <mxPoint x="285" y="374" as="targetPoint" />
          </mxGeometry>
        </mxCell>
        <mxCell id="W2uyPhcnVnDmRBekrULC-7" value="" style="endArrow=none;html=1;rounded=0;exitX=0.14;exitY=1;exitDx=0;exitDy=0;exitPerimeter=0;entryX=0.14;entryY=0;entryDx=0;entryDy=0;entryPerimeter=0;" parent="1" source="W2uyPhcnVnDmRBekrULC-1" target="W2uyPhcnVnDmRBekrULC-1" edge="1">
          <mxGeometry width="50" height="50" relative="1" as="geometry">
            <mxPoint x="175" y="600" as="sourcePoint" />
            <mxPoint x="175" y="440" as="targetPoint" />
          </mxGeometry>
        </mxCell>
        <mxCell id="W2uyPhcnVnDmRBekrULC-8" value="" style="endArrow=none;html=1;rounded=0;exitX=0.51;exitY=1;exitDx=0;exitDy=0;exitPerimeter=0;entryX=0.51;entryY=0;entryDx=0;entryDy=0;entryPerimeter=0;strokeColor=#666666;dashed=1;dashPattern=1 2;" parent="1" source="W2uyPhcnVnDmRBekrULC-1" target="W2uyPhcnVnDmRBekrULC-1" edge="1">
          <mxGeometry width="50" height="50" relative="1" as="geometry">
            <mxPoint x="294.67999999999995" y="575" as="sourcePoint" />
            <mxPoint x="294.67999999999995" y="405" as="targetPoint" />
          </mxGeometry>
        </mxCell>
        <mxCell id="W2uyPhcnVnDmRBekrULC-9" value="" style="endArrow=none;html=1;rounded=0;exitX=0.58;exitY=1;exitDx=0;exitDy=0;exitPerimeter=0;entryX=0.58;entryY=0;entryDx=0;entryDy=0;entryPerimeter=0;strokeColor=#666666;dashed=1;dashPattern=1 2;" parent="1" source="W2uyPhcnVnDmRBekrULC-1" target="W2uyPhcnVnDmRBekrULC-1" edge="1">
          <mxGeometry width="50" height="50" relative="1" as="geometry">
            <mxPoint x="306" y="580" as="sourcePoint" />
            <mxPoint x="306" y="410" as="targetPoint" />
          </mxGeometry>
        </mxCell>
        <mxCell id="W2uyPhcnVnDmRBekrULC-10" value="" style="endArrow=none;html=1;rounded=0;entryX=0.66;entryY=0;entryDx=0;entryDy=0;entryPerimeter=0;exitX=0.66;exitY=1;exitDx=0;exitDy=0;exitPerimeter=0;strokeColor=#666666;dashed=1;dashPattern=1 2;" parent="1" source="W2uyPhcnVnDmRBekrULC-1" target="W2uyPhcnVnDmRBekrULC-1" edge="1">
          <mxGeometry width="50" height="50" relative="1" as="geometry">
            <mxPoint x="345" y="570" as="sourcePoint" />
            <mxPoint x="330" y="410" as="targetPoint" />
          </mxGeometry>
        </mxCell>
        <mxCell id="W2uyPhcnVnDmRBekrULC-11" value="" style="endArrow=none;html=1;rounded=0;entryX=0.72;entryY=0;entryDx=0;entryDy=0;entryPerimeter=0;exitX=0.72;exitY=1;exitDx=0;exitDy=0;exitPerimeter=0;strokeColor=#666666;dashed=1;dashPattern=1 2;" parent="1" edge="1">
          <mxGeometry width="50" height="50" relative="1" as="geometry">
            <mxPoint x="369.99800000000005" y="570" as="sourcePoint" />
            <mxPoint x="369.99800000000005" y="400" as="targetPoint" />
          </mxGeometry>
        </mxCell>
        <mxCell id="W2uyPhcnVnDmRBekrULC-12" value="" style="endArrow=none;html=1;rounded=0;entryX=0.8;entryY=0;entryDx=0;entryDy=0;entryPerimeter=0;exitX=0.8;exitY=1;exitDx=0;exitDy=0;exitPerimeter=0;strokeColor=#666666;dashed=1;dashPattern=1 2;" parent="1" source="W2uyPhcnVnDmRBekrULC-1" target="W2uyPhcnVnDmRBekrULC-1" edge="1">
          <mxGeometry width="50" height="50" relative="1" as="geometry">
            <mxPoint x="368" y="590" as="sourcePoint" />
            <mxPoint x="368" y="420" as="targetPoint" />
          </mxGeometry>
        </mxCell>
        <mxCell id="W2uyPhcnVnDmRBekrULC-13" value="" style="endArrow=none;html=1;rounded=0;entryX=0.87;entryY=0;entryDx=0;entryDy=0;entryPerimeter=0;exitX=0.87;exitY=1;exitDx=0;exitDy=0;exitPerimeter=0;strokeColor=#666666;dashed=1;dashPattern=1 2;" parent="1" source="W2uyPhcnVnDmRBekrULC-1" target="W2uyPhcnVnDmRBekrULC-1" edge="1">
          <mxGeometry width="50" height="50" relative="1" as="geometry">
            <mxPoint x="378" y="600" as="sourcePoint" />
            <mxPoint x="378" y="430" as="targetPoint" />
          </mxGeometry>
        </mxCell>
        <mxCell id="W2uyPhcnVnDmRBekrULC-14" value="" style="endArrow=none;html=1;rounded=0;entryX=0.93;entryY=0;entryDx=0;entryDy=0;entryPerimeter=0;exitX=0.93;exitY=1;exitDx=0;exitDy=0;exitPerimeter=0;strokeColor=#666666;dashed=1;dashPattern=1 2;" parent="1" source="W2uyPhcnVnDmRBekrULC-1" target="W2uyPhcnVnDmRBekrULC-1" edge="1">
          <mxGeometry width="50" height="50" relative="1" as="geometry">
            <mxPoint x="388" y="610" as="sourcePoint" />
            <mxPoint x="388" y="440" as="targetPoint" />
          </mxGeometry>
        </mxCell>
        <mxCell id="W2uyPhcnVnDmRBekrULC-15" value="&lt;font style=&quot;font-size: 16px;&quot;&gt;index&lt;/font&gt;" style="text;html=1;align=center;verticalAlign=middle;resizable=0;points=[];autosize=1;strokeColor=none;fillColor=none;fontColor=#97D077;fontSize=18;" parent="1" vertex="1">
          <mxGeometry x="860" y="150" width="60" height="40" as="geometry" />
        </mxCell>
        <mxCell id="W2uyPhcnVnDmRBekrULC-16" value="" style="endArrow=classic;startArrow=classic;html=1;rounded=0;endSize=2;startSize=2;dashed=1;dashPattern=1 2;strokeWidth=2;exitX=1.051;exitY=0.523;exitDx=0;exitDy=0;exitPerimeter=0;" parent="1" source="W2uyPhcnVnDmRBekrULC-45" edge="1">
          <mxGeometry width="50" height="50" relative="1" as="geometry">
            <mxPoint x="1049.15" y="169.67000000000002" as="sourcePoint" />
            <mxPoint x="1259.15" y="170" as="targetPoint" />
          </mxGeometry>
        </mxCell>
        <mxCell id="W2uyPhcnVnDmRBekrULC-17" value="Text" style="edgeLabel;html=1;align=center;verticalAlign=middle;resizable=0;points=[];" parent="W2uyPhcnVnDmRBekrULC-16" vertex="1" connectable="0">
          <mxGeometry x="-0.0055" y="1" relative="1" as="geometry">
            <mxPoint as="offset" />
          </mxGeometry>
        </mxCell>
        <mxCell id="W2uyPhcnVnDmRBekrULC-18" value="&lt;font style=&quot;font-size: 16px;&quot;&gt;Data&lt;/font&gt;" style="edgeLabel;html=1;align=center;verticalAlign=middle;resizable=0;points=[];fontSize=16;" parent="W2uyPhcnVnDmRBekrULC-16" vertex="1" connectable="0">
          <mxGeometry x="-0.006" y="1" relative="1" as="geometry">
            <mxPoint as="offset" />
          </mxGeometry>
        </mxCell>
        <mxCell id="W2uyPhcnVnDmRBekrULC-19" value="&lt;div&gt;&lt;div style=&quot;font-size: 10px;&quot;&gt;&lt;br&gt;&lt;/div&gt;&lt;/div&gt;" style="rounded=0;whiteSpace=wrap;html=1;fillColor=#d5e8d4;strokeColor=#82b366;" parent="1" vertex="1">
          <mxGeometry x="869.15" y="185" width="50" height="170" as="geometry" />
        </mxCell>
        <mxCell id="W2uyPhcnVnDmRBekrULC-20" value="" style="endArrow=none;html=1;rounded=0;exitX=0;exitY=0.5;exitDx=0;exitDy=0;entryX=1;entryY=0.5;entryDx=0;entryDy=0;fillColor=#d5e8d4;strokeColor=#82b366;" parent="1" source="W2uyPhcnVnDmRBekrULC-19" target="W2uyPhcnVnDmRBekrULC-19" edge="1">
          <mxGeometry width="50" height="50" relative="1" as="geometry">
            <mxPoint x="879.15" y="215" as="sourcePoint" />
            <mxPoint x="929.15" y="165" as="targetPoint" />
          </mxGeometry>
        </mxCell>
        <mxCell id="W2uyPhcnVnDmRBekrULC-21" value="" style="endArrow=none;html=1;rounded=0;exitX=-0.017;exitY=0.253;exitDx=0;exitDy=0;entryX=1;entryY=0.25;entryDx=0;entryDy=0;exitPerimeter=0;fillColor=#d5e8d4;strokeColor=#82b366;elbow=vertical;" parent="1" source="W2uyPhcnVnDmRBekrULC-19" target="W2uyPhcnVnDmRBekrULC-19" edge="1">
          <mxGeometry width="50" height="50" relative="1" as="geometry">
            <mxPoint x="889.15" y="220" as="sourcePoint" />
            <mxPoint x="919.15" y="220" as="targetPoint" />
          </mxGeometry>
        </mxCell>
        <mxCell id="W2uyPhcnVnDmRBekrULC-22" value="" style="endArrow=none;html=1;rounded=0;exitX=0;exitY=0.75;exitDx=0;exitDy=0;entryX=1;entryY=0.75;entryDx=0;entryDy=0;fillColor=#d5e8d4;strokeColor=#82b366;" parent="1" source="W2uyPhcnVnDmRBekrULC-19" target="W2uyPhcnVnDmRBekrULC-19" edge="1">
          <mxGeometry width="50" height="50" relative="1" as="geometry">
            <mxPoint x="879.15" y="235" as="sourcePoint" />
            <mxPoint x="910.15" y="235" as="targetPoint" />
          </mxGeometry>
        </mxCell>
        <mxCell id="W2uyPhcnVnDmRBekrULC-23" value="&lt;h6&gt;&lt;font style=&quot;font-size: 30px;&quot; color=&quot;#336600&quot;&gt;0&lt;/font&gt;&lt;/h6&gt;" style="text;html=1;align=center;verticalAlign=middle;resizable=0;points=[];autosize=1;strokeColor=none;fillColor=none;" parent="1" vertex="1">
          <mxGeometry x="874.15" y="165" width="40" height="90" as="geometry" />
        </mxCell>
        <mxCell id="W2uyPhcnVnDmRBekrULC-24" value="&lt;h6&gt;&lt;font style=&quot;font-size: 30px;&quot; color=&quot;#336600&quot;&gt;1&lt;/font&gt;&lt;/h6&gt;" style="text;html=1;align=center;verticalAlign=middle;resizable=0;points=[];autosize=1;strokeColor=none;fillColor=none;" parent="1" vertex="1">
          <mxGeometry x="874.15" y="205" width="40" height="90" as="geometry" />
        </mxCell>
        <mxCell id="W2uyPhcnVnDmRBekrULC-25" value="&lt;h6&gt;&lt;font style=&quot;font-size: 30px;&quot; color=&quot;#336600&quot;&gt;3&lt;/font&gt;&lt;/h6&gt;" style="text;html=1;align=center;verticalAlign=middle;resizable=0;points=[];autosize=1;strokeColor=none;fillColor=none;" parent="1" vertex="1">
          <mxGeometry x="874.15" y="285" width="40" height="90" as="geometry" />
        </mxCell>
        <mxCell id="W2uyPhcnVnDmRBekrULC-26" value="&lt;h6&gt;&lt;font style=&quot;font-size: 30px;&quot; color=&quot;#336600&quot;&gt;2&lt;/font&gt;&lt;/h6&gt;" style="text;html=1;align=center;verticalAlign=middle;resizable=0;points=[];autosize=1;strokeColor=none;fillColor=none;" parent="1" vertex="1">
          <mxGeometry x="874.15" y="245" width="40" height="90" as="geometry" />
        </mxCell>
        <mxCell id="W2uyPhcnVnDmRBekrULC-27" value="&lt;h6&gt;&lt;font style=&quot;font-size: 30px;&quot; color=&quot;#336600&quot;&gt;.&lt;/font&gt;&lt;/h6&gt;" style="text;html=1;align=center;verticalAlign=middle;resizable=0;points=[];autosize=1;strokeColor=none;fillColor=none;" parent="1" vertex="1">
          <mxGeometry x="879.15" y="315" width="30" height="90" as="geometry" />
        </mxCell>
        <mxCell id="W2uyPhcnVnDmRBekrULC-28" value="&lt;h6&gt;&lt;font style=&quot;font-size: 30px;&quot; color=&quot;#336600&quot;&gt;.&lt;/font&gt;&lt;/h6&gt;" style="text;html=1;align=center;verticalAlign=middle;resizable=0;points=[];autosize=1;strokeColor=none;fillColor=none;" parent="1" vertex="1">
          <mxGeometry x="879.15" y="325" width="30" height="90" as="geometry" />
        </mxCell>
        <mxCell id="W2uyPhcnVnDmRBekrULC-29" value="&lt;h6&gt;&lt;font style=&quot;font-size: 30px;&quot; color=&quot;#336600&quot;&gt;.&lt;/font&gt;&lt;/h6&gt;" style="text;html=1;align=center;verticalAlign=middle;resizable=0;points=[];autosize=1;strokeColor=none;fillColor=none;" parent="1" vertex="1">
          <mxGeometry x="879.15" y="335" width="30" height="90" as="geometry" />
        </mxCell>
        <mxCell id="W2uyPhcnVnDmRBekrULC-30" value="&lt;div&gt;&lt;div style=&quot;font-size: 10px;&quot;&gt;&lt;br&gt;&lt;/div&gt;&lt;/div&gt;" style="rounded=0;whiteSpace=wrap;html=1;fillColor=#d5e8d4;strokeColor=#82b366;" parent="1" vertex="1">
          <mxGeometry x="870" y="405" width="50" height="170" as="geometry" />
        </mxCell>
        <mxCell id="W2uyPhcnVnDmRBekrULC-31" value="" style="endArrow=none;html=1;rounded=0;exitX=0;exitY=0.5;exitDx=0;exitDy=0;entryX=1;entryY=0.5;entryDx=0;entryDy=0;fillColor=#d5e8d4;strokeColor=#82b366;" parent="1" source="W2uyPhcnVnDmRBekrULC-30" target="W2uyPhcnVnDmRBekrULC-30" edge="1">
          <mxGeometry width="50" height="50" relative="1" as="geometry">
            <mxPoint x="880" y="435" as="sourcePoint" />
            <mxPoint x="930" y="385" as="targetPoint" />
          </mxGeometry>
        </mxCell>
        <mxCell id="W2uyPhcnVnDmRBekrULC-32" value="" style="endArrow=none;html=1;rounded=0;exitX=-0.017;exitY=0.253;exitDx=0;exitDy=0;entryX=1;entryY=0.25;entryDx=0;entryDy=0;exitPerimeter=0;fillColor=#d5e8d4;strokeColor=#82b366;elbow=vertical;" parent="1" source="W2uyPhcnVnDmRBekrULC-30" target="W2uyPhcnVnDmRBekrULC-30" edge="1">
          <mxGeometry width="50" height="50" relative="1" as="geometry">
            <mxPoint x="890" y="440" as="sourcePoint" />
            <mxPoint x="920" y="440" as="targetPoint" />
          </mxGeometry>
        </mxCell>
        <mxCell id="W2uyPhcnVnDmRBekrULC-33" value="" style="endArrow=none;html=1;rounded=0;exitX=0;exitY=0.75;exitDx=0;exitDy=0;entryX=1;entryY=0.75;entryDx=0;entryDy=0;fillColor=#d5e8d4;strokeColor=#82b366;" parent="1" source="W2uyPhcnVnDmRBekrULC-30" target="W2uyPhcnVnDmRBekrULC-30" edge="1">
          <mxGeometry width="50" height="50" relative="1" as="geometry">
            <mxPoint x="880" y="455" as="sourcePoint" />
            <mxPoint x="911" y="455" as="targetPoint" />
          </mxGeometry>
        </mxCell>
        <mxCell id="W2uyPhcnVnDmRBekrULC-34" value="&lt;h6&gt;&lt;br&gt;&lt;/h6&gt;" style="text;html=1;align=center;verticalAlign=middle;resizable=0;points=[];autosize=1;strokeColor=none;fillColor=none;" parent="1" vertex="1">
          <mxGeometry x="889.15" y="400" width="20" height="60" as="geometry" />
        </mxCell>
        <mxCell id="W2uyPhcnVnDmRBekrULC-35" value="&lt;h6&gt;&lt;font color=&quot;#336600&quot;&gt;&lt;span style=&quot;font-size: 30px;&quot;&gt;61&lt;/span&gt;&lt;/font&gt;&lt;/h6&gt;" style="text;html=1;align=center;verticalAlign=middle;resizable=0;points=[];autosize=1;strokeColor=none;fillColor=none;" parent="1" vertex="1">
          <mxGeometry x="865" y="425" width="60" height="90" as="geometry" />
        </mxCell>
        <mxCell id="W2uyPhcnVnDmRBekrULC-36" value="&lt;h6&gt;&lt;font color=&quot;#336600&quot;&gt;&lt;span style=&quot;font-size: 30px;&quot;&gt;63&lt;/span&gt;&lt;/font&gt;&lt;/h6&gt;" style="text;html=1;align=center;verticalAlign=middle;resizable=0;points=[];autosize=1;strokeColor=none;fillColor=none;" parent="1" vertex="1">
          <mxGeometry x="864.15" y="505" width="60" height="90" as="geometry" />
        </mxCell>
        <mxCell id="W2uyPhcnVnDmRBekrULC-37" value="&lt;h6&gt;&lt;font color=&quot;#336600&quot;&gt;&lt;span style=&quot;font-size: 30px;&quot;&gt;62&lt;/span&gt;&lt;/font&gt;&lt;/h6&gt;" style="text;html=1;align=center;verticalAlign=middle;resizable=0;points=[];autosize=1;strokeColor=none;fillColor=none;" parent="1" vertex="1">
          <mxGeometry x="864.15" y="465" width="60" height="90" as="geometry" />
        </mxCell>
        <mxCell id="W2uyPhcnVnDmRBekrULC-38" value="&lt;h6&gt;&lt;font style=&quot;font-size: 30px;&quot; color=&quot;#336600&quot;&gt;60&lt;/font&gt;&lt;/h6&gt;" style="text;html=1;align=center;verticalAlign=middle;resizable=0;points=[];autosize=1;strokeColor=none;fillColor=none;" parent="1" vertex="1">
          <mxGeometry x="864.15" y="385" width="60" height="90" as="geometry" />
        </mxCell>
        <mxCell id="W2uyPhcnVnDmRBekrULC-39" value="&lt;div&gt;&lt;div style=&quot;font-size: 10px;&quot;&gt;&lt;br&gt;&lt;/div&gt;&lt;/div&gt;" style="rounded=0;whiteSpace=wrap;html=1;fillColor=#f5f5f5;fontColor=#333333;strokeColor=#666666;points=[[0,0,0,0,0],[0,0.25,0,0,0],[0,0.5,0,0,0],[0,0.75,0,0,0],[0,1,0,0,0],[0.13,0,0,0,0],[0.14,1,0,0,0],[0.28,0,0,0,0],[0.28,1,0,0,0],[0.43,0,0,0,0],[0.43,1,0,0,0],[0.51,0,0,0,0],[0.51,1,0,0,0],[0.58,0,0,0,0],[0.58,1,0,0,0],[0.66,0,0,0,0],[0.66,1,0,0,0],[0.72,0,0,0,0],[0.72,1,0,0,0],[0.8,0,0,0,0],[0.8,1,0,0,0],[0.87,0,0,0,0],[0.87,1,0,0,0],[0.93,0,0,0,0],[0.93,1,0,0,0],[1,0,0,0,0],[1,0.25,0,0,0],[1,0.5,0,0,0],[1,0.75,0,0,0],[1,1,0,0,0]];" parent="1" vertex="1">
          <mxGeometry x="915" y="185" width="344.15" height="170" as="geometry" />
        </mxCell>
        <mxCell id="W2uyPhcnVnDmRBekrULC-40" value="" style="endArrow=none;html=1;rounded=0;exitX=0;exitY=0.5;exitDx=0;exitDy=0;entryX=1;entryY=0.5;entryDx=0;entryDy=0;fillColor=#f5f5f5;" parent="1" source="W2uyPhcnVnDmRBekrULC-39" target="W2uyPhcnVnDmRBekrULC-39" edge="1">
          <mxGeometry width="50" height="50" relative="1" as="geometry">
            <mxPoint x="930" y="215" as="sourcePoint" />
            <mxPoint x="980" y="165" as="targetPoint" />
          </mxGeometry>
        </mxCell>
        <mxCell id="W2uyPhcnVnDmRBekrULC-41" value="" style="endArrow=none;html=1;rounded=0;entryX=1;entryY=0.25;entryDx=0;entryDy=0;fillColor=#f5f5f5;elbow=vertical;exitX=0;exitY=0.25;exitDx=0;exitDy=0;" parent="1" source="W2uyPhcnVnDmRBekrULC-39" target="W2uyPhcnVnDmRBekrULC-39" edge="1">
          <mxGeometry width="50" height="50" relative="1" as="geometry">
            <mxPoint x="919.15" y="228" as="sourcePoint" />
            <mxPoint x="970" y="220" as="targetPoint" />
          </mxGeometry>
        </mxCell>
        <mxCell id="W2uyPhcnVnDmRBekrULC-42" value="" style="endArrow=none;html=1;rounded=0;exitX=0;exitY=0.75;exitDx=0;exitDy=0;entryX=1;entryY=0.75;entryDx=0;entryDy=0;fillColor=#f5f5f5;" parent="1" source="W2uyPhcnVnDmRBekrULC-39" target="W2uyPhcnVnDmRBekrULC-39" edge="1">
          <mxGeometry width="50" height="50" relative="1" as="geometry">
            <mxPoint x="930" y="235" as="sourcePoint" />
            <mxPoint x="961" y="235" as="targetPoint" />
          </mxGeometry>
        </mxCell>
        <mxCell id="W2uyPhcnVnDmRBekrULC-43" value="&lt;font style=&quot;font-size: 16px;&quot; color=&quot;#000000&quot;&gt;valid&lt;/font&gt;" style="text;html=1;align=center;verticalAlign=middle;resizable=0;points=[];autosize=1;strokeColor=none;fillColor=none;fontColor=#97D077;fontSize=18;" parent="1" vertex="1">
          <mxGeometry x="909.15" y="150" width="60" height="40" as="geometry" />
        </mxCell>
        <mxCell id="W2uyPhcnVnDmRBekrULC-44" value="&lt;font color=&quot;#000000&quot; style=&quot;font-size: 16px;&quot;&gt;dirty&lt;/font&gt;" style="text;html=1;align=center;verticalAlign=middle;resizable=0;points=[];autosize=1;strokeColor=none;fillColor=none;fontColor=#97D077;fontSize=18;" parent="1" vertex="1">
          <mxGeometry x="959.15" y="150" width="50" height="40" as="geometry" />
        </mxCell>
        <mxCell id="W2uyPhcnVnDmRBekrULC-45" value="&lt;font color=&quot;#000000&quot; style=&quot;font-size: 16px;&quot;&gt;tag&lt;/font&gt;" style="text;html=1;align=center;verticalAlign=middle;resizable=0;points=[];autosize=1;strokeColor=none;fillColor=none;fontColor=#97D077;fontSize=18;" parent="1" vertex="1">
          <mxGeometry x="1009.15" y="150" width="50" height="40" as="geometry" />
        </mxCell>
        <mxCell id="W2uyPhcnVnDmRBekrULC-46" value="" style="endArrow=none;html=1;rounded=0;exitX=0.28;exitY=1;exitDx=0;exitDy=0;exitPerimeter=0;entryX=0.28;entryY=0;entryDx=0;entryDy=0;entryPerimeter=0;" parent="1" source="W2uyPhcnVnDmRBekrULC-39" target="W2uyPhcnVnDmRBekrULC-39" edge="1">
          <mxGeometry width="50" height="50" relative="1" as="geometry">
            <mxPoint x="1000.15" y="354" as="sourcePoint" />
            <mxPoint x="999.15" y="185" as="targetPoint" />
          </mxGeometry>
        </mxCell>
        <mxCell id="W2uyPhcnVnDmRBekrULC-47" value="" style="endArrow=none;html=1;rounded=0;exitX=0.43;exitY=1;exitDx=0;exitDy=0;exitPerimeter=0;entryX=0.43;entryY=0;entryDx=0;entryDy=0;entryPerimeter=0;" parent="1" source="W2uyPhcnVnDmRBekrULC-39" target="W2uyPhcnVnDmRBekrULC-39" edge="1">
          <mxGeometry width="50" height="50" relative="1" as="geometry">
            <mxPoint x="1080.2706" y="329" as="sourcePoint" />
            <mxPoint x="1079.15" y="159" as="targetPoint" />
          </mxGeometry>
        </mxCell>
        <mxCell id="W2uyPhcnVnDmRBekrULC-48" value="" style="endArrow=none;html=1;rounded=0;exitX=0.14;exitY=1;exitDx=0;exitDy=0;exitPerimeter=0;entryX=0.14;entryY=0;entryDx=0;entryDy=0;entryPerimeter=0;" parent="1" source="W2uyPhcnVnDmRBekrULC-39" target="W2uyPhcnVnDmRBekrULC-39" edge="1">
          <mxGeometry width="50" height="50" relative="1" as="geometry">
            <mxPoint x="969.15" y="385" as="sourcePoint" />
            <mxPoint x="969.15" y="225" as="targetPoint" />
          </mxGeometry>
        </mxCell>
        <mxCell id="W2uyPhcnVnDmRBekrULC-49" value="&lt;h6&gt;&lt;font style=&quot;font-size: 30px;&quot;&gt;.&lt;/font&gt;&lt;/h6&gt;" style="text;html=1;align=center;verticalAlign=middle;resizable=0;points=[];autosize=1;strokeColor=none;fillColor=none;fontColor=default;" parent="1" vertex="1">
          <mxGeometry x="1049.15" y="315" width="30" height="90" as="geometry" />
        </mxCell>
        <mxCell id="W2uyPhcnVnDmRBekrULC-50" value="&lt;h6&gt;&lt;font style=&quot;font-size: 30px;&quot;&gt;.&lt;/font&gt;&lt;/h6&gt;" style="text;html=1;align=center;verticalAlign=middle;resizable=0;points=[];autosize=1;strokeColor=none;fillColor=none;fontColor=default;" parent="1" vertex="1">
          <mxGeometry x="1049.15" y="325" width="30" height="90" as="geometry" />
        </mxCell>
        <mxCell id="W2uyPhcnVnDmRBekrULC-51" value="&lt;h6&gt;&lt;font style=&quot;font-size: 30px;&quot;&gt;.&lt;/font&gt;&lt;/h6&gt;" style="text;html=1;align=center;verticalAlign=middle;resizable=0;points=[];autosize=1;strokeColor=none;fillColor=none;fontColor=default;" parent="1" vertex="1">
          <mxGeometry x="1049.15" y="335" width="30" height="90" as="geometry" />
        </mxCell>
        <mxCell id="W2uyPhcnVnDmRBekrULC-52" value="" style="endArrow=none;html=1;rounded=0;exitX=0.51;exitY=1;exitDx=0;exitDy=0;exitPerimeter=0;entryX=0.51;entryY=0;entryDx=0;entryDy=0;entryPerimeter=0;strokeColor=#666666;dashed=1;dashPattern=1 2;" parent="1" source="W2uyPhcnVnDmRBekrULC-39" target="W2uyPhcnVnDmRBekrULC-39" edge="1">
          <mxGeometry width="50" height="50" relative="1" as="geometry">
            <mxPoint x="1088.83" y="360" as="sourcePoint" />
            <mxPoint x="1088.83" y="190" as="targetPoint" />
          </mxGeometry>
        </mxCell>
        <mxCell id="W2uyPhcnVnDmRBekrULC-53" value="" style="endArrow=none;html=1;rounded=0;exitX=0.58;exitY=1;exitDx=0;exitDy=0;exitPerimeter=0;entryX=0.58;entryY=0;entryDx=0;entryDy=0;entryPerimeter=0;strokeColor=#666666;dashed=1;dashPattern=1 2;" parent="1" source="W2uyPhcnVnDmRBekrULC-39" target="W2uyPhcnVnDmRBekrULC-39" edge="1">
          <mxGeometry width="50" height="50" relative="1" as="geometry">
            <mxPoint x="1100.15" y="365" as="sourcePoint" />
            <mxPoint x="1100.15" y="195" as="targetPoint" />
          </mxGeometry>
        </mxCell>
        <mxCell id="W2uyPhcnVnDmRBekrULC-54" value="" style="endArrow=none;html=1;rounded=0;entryX=0.66;entryY=0;entryDx=0;entryDy=0;entryPerimeter=0;exitX=0.66;exitY=1;exitDx=0;exitDy=0;exitPerimeter=0;strokeColor=#666666;dashed=1;dashPattern=1 2;" parent="1" source="W2uyPhcnVnDmRBekrULC-39" target="W2uyPhcnVnDmRBekrULC-39" edge="1">
          <mxGeometry width="50" height="50" relative="1" as="geometry">
            <mxPoint x="1139.15" y="355" as="sourcePoint" />
            <mxPoint x="1124.15" y="195" as="targetPoint" />
          </mxGeometry>
        </mxCell>
        <mxCell id="W2uyPhcnVnDmRBekrULC-55" value="" style="endArrow=none;html=1;rounded=0;entryX=0.72;entryY=0;entryDx=0;entryDy=0;entryPerimeter=0;exitX=0.72;exitY=1;exitDx=0;exitDy=0;exitPerimeter=0;strokeColor=#666666;dashed=1;dashPattern=1 2;" parent="1" edge="1">
          <mxGeometry width="50" height="50" relative="1" as="geometry">
            <mxPoint x="1169.1479999999997" y="355" as="sourcePoint" />
            <mxPoint x="1169.1479999999997" y="185" as="targetPoint" />
          </mxGeometry>
        </mxCell>
        <mxCell id="W2uyPhcnVnDmRBekrULC-56" value="" style="endArrow=none;html=1;rounded=0;entryX=0.8;entryY=0;entryDx=0;entryDy=0;entryPerimeter=0;exitX=0.8;exitY=1;exitDx=0;exitDy=0;exitPerimeter=0;strokeColor=#666666;dashed=1;dashPattern=1 2;" parent="1" source="W2uyPhcnVnDmRBekrULC-39" target="W2uyPhcnVnDmRBekrULC-39" edge="1">
          <mxGeometry width="50" height="50" relative="1" as="geometry">
            <mxPoint x="1162.15" y="375" as="sourcePoint" />
            <mxPoint x="1162.15" y="205" as="targetPoint" />
          </mxGeometry>
        </mxCell>
        <mxCell id="W2uyPhcnVnDmRBekrULC-57" value="" style="endArrow=none;html=1;rounded=0;entryX=0.87;entryY=0;entryDx=0;entryDy=0;entryPerimeter=0;exitX=0.87;exitY=1;exitDx=0;exitDy=0;exitPerimeter=0;strokeColor=#666666;dashed=1;dashPattern=1 2;" parent="1" source="W2uyPhcnVnDmRBekrULC-39" target="W2uyPhcnVnDmRBekrULC-39" edge="1">
          <mxGeometry width="50" height="50" relative="1" as="geometry">
            <mxPoint x="1172.15" y="385" as="sourcePoint" />
            <mxPoint x="1172.15" y="215" as="targetPoint" />
          </mxGeometry>
        </mxCell>
        <mxCell id="W2uyPhcnVnDmRBekrULC-58" value="" style="endArrow=none;html=1;rounded=0;entryX=0.93;entryY=0;entryDx=0;entryDy=0;entryPerimeter=0;exitX=0.93;exitY=1;exitDx=0;exitDy=0;exitPerimeter=0;strokeColor=#666666;dashed=1;dashPattern=1 2;" parent="1" source="W2uyPhcnVnDmRBekrULC-39" target="W2uyPhcnVnDmRBekrULC-39" edge="1">
          <mxGeometry width="50" height="50" relative="1" as="geometry">
            <mxPoint x="1182.15" y="395" as="sourcePoint" />
            <mxPoint x="1182.15" y="225" as="targetPoint" />
          </mxGeometry>
        </mxCell>
        <mxCell id="W2uyPhcnVnDmRBekrULC-86" style="edgeStyle=orthogonalEdgeStyle;rounded=0;orthogonalLoop=1;jettySize=auto;html=1;exitX=0.36;exitY=1;exitDx=0;exitDy=0;exitPerimeter=0;" parent="1" source="W2uyPhcnVnDmRBekrULC-59" target="FgBpNW55SPB5Wy7BsFvd-224" edge="1">
          <mxGeometry relative="1" as="geometry" />
        </mxCell>
        <mxCell id="W2uyPhcnVnDmRBekrULC-59" value="&lt;div&gt;&lt;div style=&quot;font-size: 10px;&quot;&gt;&lt;br&gt;&lt;/div&gt;&lt;/div&gt;" style="rounded=0;whiteSpace=wrap;html=1;fillColor=#f5f5f5;fontColor=#333333;strokeColor=#666666;points=[[0,0,0,0,0],[0,0.25,0,0,0],[0,0.5,0,0,0],[0,0.75,0,0,0],[0,1,0,0,0],[0.13,0,0,0,0],[0.14,1,0,0,0],[0.28,0,0,0,0],[0.28,1,0,0,0],[0.36,1,0,0,0],[0.43,0,0,0,0],[0.43,1,0,0,0],[0.51,0,0,0,0],[0.51,1,0,0,0],[0.58,0,0,0,0],[0.58,1,0,0,0],[0.66,0,0,0,0],[0.66,1,0,0,0],[0.72,0,0,0,0],[0.72,1,0,0,0],[0.8,0,0,0,0],[0.8,1,0,0,0],[0.87,0,0,0,0],[0.87,1,0,0,0],[0.93,0,0,0,0],[0.93,1,0,0,0],[1,0,0,0,0],[1,0.25,0,0,0],[1,0.5,0,0,0],[1,0.75,0,0,0],[1,1,0,0,0]];" parent="1" vertex="1">
          <mxGeometry x="920" y="405" width="339.15" height="170" as="geometry" />
        </mxCell>
        <mxCell id="W2uyPhcnVnDmRBekrULC-60" value="" style="endArrow=none;html=1;rounded=0;exitX=0;exitY=0.5;exitDx=0;exitDy=0;entryX=1;entryY=0.5;entryDx=0;entryDy=0;fillColor=#f5f5f5;" parent="1" source="W2uyPhcnVnDmRBekrULC-59" target="W2uyPhcnVnDmRBekrULC-59" edge="1">
          <mxGeometry width="50" height="50" relative="1" as="geometry">
            <mxPoint x="935" y="435" as="sourcePoint" />
            <mxPoint x="985" y="385" as="targetPoint" />
          </mxGeometry>
        </mxCell>
        <mxCell id="W2uyPhcnVnDmRBekrULC-61" value="" style="endArrow=none;html=1;rounded=0;entryX=1;entryY=0.25;entryDx=0;entryDy=0;fillColor=#f5f5f5;elbow=vertical;exitX=0;exitY=0.25;exitDx=0;exitDy=0;" parent="1" source="W2uyPhcnVnDmRBekrULC-59" target="W2uyPhcnVnDmRBekrULC-59" edge="1">
          <mxGeometry width="50" height="50" relative="1" as="geometry">
            <mxPoint x="924.15" y="448" as="sourcePoint" />
            <mxPoint x="975" y="440" as="targetPoint" />
          </mxGeometry>
        </mxCell>
        <mxCell id="W2uyPhcnVnDmRBekrULC-62" value="" style="endArrow=none;html=1;rounded=0;exitX=0;exitY=0.75;exitDx=0;exitDy=0;entryX=1;entryY=0.75;entryDx=0;entryDy=0;fillColor=#f5f5f5;" parent="1" source="W2uyPhcnVnDmRBekrULC-59" target="W2uyPhcnVnDmRBekrULC-59" edge="1">
          <mxGeometry width="50" height="50" relative="1" as="geometry">
            <mxPoint x="935" y="455" as="sourcePoint" />
            <mxPoint x="966" y="455" as="targetPoint" />
          </mxGeometry>
        </mxCell>
        <mxCell id="W2uyPhcnVnDmRBekrULC-63" value="" style="endArrow=none;html=1;rounded=0;exitX=0.28;exitY=1;exitDx=0;exitDy=0;exitPerimeter=0;entryX=0.28;entryY=0;entryDx=0;entryDy=0;entryPerimeter=0;" parent="1" source="W2uyPhcnVnDmRBekrULC-59" target="W2uyPhcnVnDmRBekrULC-59" edge="1">
          <mxGeometry width="50" height="50" relative="1" as="geometry">
            <mxPoint x="1005.15" y="574" as="sourcePoint" />
            <mxPoint x="1004.15" y="405" as="targetPoint" />
          </mxGeometry>
        </mxCell>
        <mxCell id="W2uyPhcnVnDmRBekrULC-64" value="" style="endArrow=none;html=1;rounded=0;exitX=0.43;exitY=1;exitDx=0;exitDy=0;exitPerimeter=0;entryX=0.43;entryY=0;entryDx=0;entryDy=0;entryPerimeter=0;" parent="1" source="W2uyPhcnVnDmRBekrULC-59" target="W2uyPhcnVnDmRBekrULC-59" edge="1">
          <mxGeometry width="50" height="50" relative="1" as="geometry">
            <mxPoint x="1085.2706" y="549" as="sourcePoint" />
            <mxPoint x="1084.15" y="379" as="targetPoint" />
          </mxGeometry>
        </mxCell>
        <mxCell id="W2uyPhcnVnDmRBekrULC-65" value="" style="endArrow=none;html=1;rounded=0;exitX=0.14;exitY=1;exitDx=0;exitDy=0;exitPerimeter=0;entryX=0.14;entryY=0;entryDx=0;entryDy=0;entryPerimeter=0;" parent="1" source="W2uyPhcnVnDmRBekrULC-59" target="W2uyPhcnVnDmRBekrULC-59" edge="1">
          <mxGeometry width="50" height="50" relative="1" as="geometry">
            <mxPoint x="974.15" y="605" as="sourcePoint" />
            <mxPoint x="974.15" y="445" as="targetPoint" />
          </mxGeometry>
        </mxCell>
        <mxCell id="W2uyPhcnVnDmRBekrULC-66" value="" style="endArrow=none;html=1;rounded=0;exitX=0.51;exitY=1;exitDx=0;exitDy=0;exitPerimeter=0;entryX=0.51;entryY=0;entryDx=0;entryDy=0;entryPerimeter=0;strokeColor=#666666;dashed=1;dashPattern=1 2;" parent="1" source="W2uyPhcnVnDmRBekrULC-59" target="W2uyPhcnVnDmRBekrULC-59" edge="1">
          <mxGeometry width="50" height="50" relative="1" as="geometry">
            <mxPoint x="1093.83" y="580" as="sourcePoint" />
            <mxPoint x="1093.83" y="410" as="targetPoint" />
          </mxGeometry>
        </mxCell>
        <mxCell id="W2uyPhcnVnDmRBekrULC-67" value="" style="endArrow=none;html=1;rounded=0;exitX=0.58;exitY=1;exitDx=0;exitDy=0;exitPerimeter=0;entryX=0.58;entryY=0;entryDx=0;entryDy=0;entryPerimeter=0;strokeColor=#666666;dashed=1;dashPattern=1 2;" parent="1" source="W2uyPhcnVnDmRBekrULC-59" target="W2uyPhcnVnDmRBekrULC-59" edge="1">
          <mxGeometry width="50" height="50" relative="1" as="geometry">
            <mxPoint x="1105.15" y="585" as="sourcePoint" />
            <mxPoint x="1105.15" y="415" as="targetPoint" />
          </mxGeometry>
        </mxCell>
        <mxCell id="W2uyPhcnVnDmRBekrULC-68" value="" style="endArrow=none;html=1;rounded=0;entryX=0.66;entryY=0;entryDx=0;entryDy=0;entryPerimeter=0;exitX=0.66;exitY=1;exitDx=0;exitDy=0;exitPerimeter=0;strokeColor=#666666;dashed=1;dashPattern=1 2;" parent="1" source="W2uyPhcnVnDmRBekrULC-59" target="W2uyPhcnVnDmRBekrULC-59" edge="1">
          <mxGeometry width="50" height="50" relative="1" as="geometry">
            <mxPoint x="1144.15" y="575" as="sourcePoint" />
            <mxPoint x="1129.15" y="415" as="targetPoint" />
          </mxGeometry>
        </mxCell>
        <mxCell id="W2uyPhcnVnDmRBekrULC-69" value="" style="endArrow=none;html=1;rounded=0;entryX=0.72;entryY=0;entryDx=0;entryDy=0;entryPerimeter=0;exitX=0.72;exitY=1;exitDx=0;exitDy=0;exitPerimeter=0;strokeColor=#666666;dashed=1;dashPattern=1 2;" parent="1" edge="1">
          <mxGeometry width="50" height="50" relative="1" as="geometry">
            <mxPoint x="1169.1480000000001" y="575" as="sourcePoint" />
            <mxPoint x="1169.1480000000001" y="405" as="targetPoint" />
          </mxGeometry>
        </mxCell>
        <mxCell id="W2uyPhcnVnDmRBekrULC-70" value="" style="endArrow=none;html=1;rounded=0;entryX=0.8;entryY=0;entryDx=0;entryDy=0;entryPerimeter=0;exitX=0.8;exitY=1;exitDx=0;exitDy=0;exitPerimeter=0;strokeColor=#666666;dashed=1;dashPattern=1 2;" parent="1" source="W2uyPhcnVnDmRBekrULC-59" target="W2uyPhcnVnDmRBekrULC-59" edge="1">
          <mxGeometry width="50" height="50" relative="1" as="geometry">
            <mxPoint x="1167.15" y="595" as="sourcePoint" />
            <mxPoint x="1167.15" y="425" as="targetPoint" />
          </mxGeometry>
        </mxCell>
        <mxCell id="W2uyPhcnVnDmRBekrULC-71" value="" style="endArrow=none;html=1;rounded=0;entryX=0.87;entryY=0;entryDx=0;entryDy=0;entryPerimeter=0;exitX=0.87;exitY=1;exitDx=0;exitDy=0;exitPerimeter=0;strokeColor=#666666;dashed=1;dashPattern=1 2;" parent="1" source="W2uyPhcnVnDmRBekrULC-59" target="W2uyPhcnVnDmRBekrULC-59" edge="1">
          <mxGeometry width="50" height="50" relative="1" as="geometry">
            <mxPoint x="1177.15" y="605" as="sourcePoint" />
            <mxPoint x="1177.15" y="435" as="targetPoint" />
          </mxGeometry>
        </mxCell>
        <mxCell id="W2uyPhcnVnDmRBekrULC-72" value="" style="endArrow=none;html=1;rounded=0;entryX=0.93;entryY=0;entryDx=0;entryDy=0;entryPerimeter=0;exitX=0.93;exitY=1;exitDx=0;exitDy=0;exitPerimeter=0;strokeColor=#666666;dashed=1;dashPattern=1 2;" parent="1" source="W2uyPhcnVnDmRBekrULC-59" target="W2uyPhcnVnDmRBekrULC-59" edge="1">
          <mxGeometry width="50" height="50" relative="1" as="geometry">
            <mxPoint x="1187.15" y="615" as="sourcePoint" />
            <mxPoint x="1187.15" y="445" as="targetPoint" />
          </mxGeometry>
        </mxCell>
        <mxCell id="W2uyPhcnVnDmRBekrULC-77" value="" style="edgeStyle=orthogonalEdgeStyle;rounded=0;orthogonalLoop=1;jettySize=auto;html=1;exitX=0.611;exitY=1.012;exitDx=0;exitDy=0;exitPerimeter=0;entryX=0;entryY=0.5;entryDx=0;entryDy=0;" parent="1" source="FgBpNW55SPB5Wy7BsFvd-57" target="W2uyPhcnVnDmRBekrULC-19" edge="1">
          <mxGeometry relative="1" as="geometry">
            <mxPoint x="710" y="100" as="sourcePoint" />
            <mxPoint x="740" y="270" as="targetPoint" />
            <Array as="points">
              <mxPoint x="549" y="-68" />
              <mxPoint x="550" y="265" />
            </Array>
          </mxGeometry>
        </mxCell>
        <mxCell id="W2uyPhcnVnDmRBekrULC-79" value="" style="endArrow=classic;html=1;rounded=0;startArrow=oval;startFill=1;endSize=6;startSize=4;entryX=0;entryY=0.5;entryDx=0;entryDy=0;" parent="1" target="FgBpNW55SPB5Wy7BsFvd-103" edge="1">
          <mxGeometry width="50" height="50" relative="1" as="geometry">
            <mxPoint x="550" y="80" as="sourcePoint" />
            <mxPoint x="50" y="270" as="targetPoint" />
            <Array as="points">
              <mxPoint x="50" y="80" />
              <mxPoint x="50" y="265" />
            </Array>
          </mxGeometry>
        </mxCell>
        <mxCell id="W2uyPhcnVnDmRBekrULC-83" style="edgeStyle=orthogonalEdgeStyle;rounded=0;orthogonalLoop=1;jettySize=auto;html=1;entryX=0;entryY=0.5;entryDx=0;entryDy=0;" parent="1" source="FgBpNW55SPB5Wy7BsFvd-57" target="FgBpNW55SPB5Wy7BsFvd-224" edge="1">
          <mxGeometry relative="1" as="geometry">
            <mxPoint x="670" y="640" as="targetPoint" />
            <Array as="points">
              <mxPoint x="-10" y="-94" />
              <mxPoint x="-10" y="740" />
              <mxPoint x="850" y="740" />
              <mxPoint x="850" y="715" />
              <mxPoint x="999" y="715" />
            </Array>
          </mxGeometry>
        </mxCell>
        <mxCell id="W2uyPhcnVnDmRBekrULC-91" style="edgeStyle=orthogonalEdgeStyle;rounded=0;orthogonalLoop=1;jettySize=auto;html=1;exitX=0.5;exitY=1;exitDx=0;exitDy=0;entryX=0;entryY=0.25;entryDx=0;entryDy=0;entryPerimeter=0;" parent="1" source="FgBpNW55SPB5Wy7BsFvd-53" target="FgBpNW55SPB5Wy7BsFvd-54" edge="1">
          <mxGeometry relative="1" as="geometry" />
        </mxCell>
        <mxCell id="W2uyPhcnVnDmRBekrULC-92" style="edgeStyle=orthogonalEdgeStyle;rounded=0;orthogonalLoop=1;jettySize=auto;html=1;exitX=0;exitY=0.75;exitDx=0;exitDy=0;exitPerimeter=0;entryX=0.046;entryY=1.012;entryDx=0;entryDy=0;entryPerimeter=0;startArrow=classic;startFill=1;endArrow=none;endFill=0;" parent="1" source="FgBpNW55SPB5Wy7BsFvd-54" target="W2uyPhcnVnDmRBekrULC-1" edge="1">
          <mxGeometry relative="1" as="geometry">
            <Array as="points">
              <mxPoint x="174" y="790" />
              <mxPoint x="136" y="790" />
            </Array>
          </mxGeometry>
        </mxCell>
        <mxCell id="W2uyPhcnVnDmRBekrULC-95" style="edgeStyle=orthogonalEdgeStyle;rounded=0;orthogonalLoop=1;jettySize=auto;html=1;exitX=1;exitY=0.5;exitDx=0;exitDy=0;exitPerimeter=0;" parent="1" source="W2uyPhcnVnDmRBekrULC-96" edge="1">
          <mxGeometry relative="1" as="geometry">
            <mxPoint x="985.5" y="1024" as="targetPoint" />
          </mxGeometry>
        </mxCell>
        <mxCell id="W2uyPhcnVnDmRBekrULC-96" value="+" style="shape=or;whiteSpace=wrap;html=1;rotation=90;" parent="1" vertex="1">
          <mxGeometry x="964.5" y="904" width="42" height="109" as="geometry" />
        </mxCell>
        <mxCell id="W2uyPhcnVnDmRBekrULC-97" style="edgeStyle=orthogonalEdgeStyle;rounded=0;orthogonalLoop=1;jettySize=auto;html=1;exitX=0.5;exitY=1;exitDx=0;exitDy=0;entryX=0;entryY=0.25;entryDx=0;entryDy=0;entryPerimeter=0;" parent="1" source="FgBpNW55SPB5Wy7BsFvd-224" target="W2uyPhcnVnDmRBekrULC-96" edge="1">
          <mxGeometry relative="1" as="geometry">
            <mxPoint x="1039.5" y="814" as="sourcePoint" />
          </mxGeometry>
        </mxCell>
        <mxCell id="W2uyPhcnVnDmRBekrULC-98" style="edgeStyle=orthogonalEdgeStyle;rounded=0;orthogonalLoop=1;jettySize=auto;html=1;exitX=0;exitY=0.75;exitDx=0;exitDy=0;exitPerimeter=0;startArrow=classic;startFill=1;endArrow=none;endFill=0;" parent="1" source="W2uyPhcnVnDmRBekrULC-96" edge="1">
          <mxGeometry relative="1" as="geometry">
            <mxPoint x="931" y="575" as="targetPoint" />
            <Array as="points">
              <mxPoint x="958" y="845" />
              <mxPoint x="931" y="845" />
            </Array>
          </mxGeometry>
        </mxCell>
        <mxCell id="G3TpQvpC_8L5SOuOtr3R-11" style="edgeStyle=orthogonalEdgeStyle;rounded=0;orthogonalLoop=1;jettySize=auto;html=1;endArrow=oval;endFill=1;" edge="1" parent="1" source="W2uyPhcnVnDmRBekrULC-100">
          <mxGeometry relative="1" as="geometry">
            <mxPoint x="780" y="-100" as="targetPoint" />
          </mxGeometry>
        </mxCell>
        <mxCell id="G3TpQvpC_8L5SOuOtr3R-14" style="edgeStyle=orthogonalEdgeStyle;rounded=0;orthogonalLoop=1;jettySize=auto;html=1;exitX=0.5;exitY=1;exitDx=0;exitDy=0;" edge="1" parent="1" source="W2uyPhcnVnDmRBekrULC-100">
          <mxGeometry relative="1" as="geometry">
            <mxPoint x="390.0476190476188" y="780" as="targetPoint" />
          </mxGeometry>
        </mxCell>
        <mxCell id="W2uyPhcnVnDmRBekrULC-100" value="mux 8 - 1" style="rounded=0;whiteSpace=wrap;html=1;" parent="1" vertex="1">
          <mxGeometry x="290" y="700" width="200" height="30" as="geometry" />
        </mxCell>
        <mxCell id="W2uyPhcnVnDmRBekrULC-102" style="edgeStyle=orthogonalEdgeStyle;rounded=0;orthogonalLoop=1;jettySize=auto;html=1;exitX=0.47;exitY=1;exitDx=0;exitDy=0;exitPerimeter=0;entryX=0.027;entryY=0.005;entryDx=0;entryDy=0;entryPerimeter=0;endArrow=none;endFill=0;" parent="1" source="W2uyPhcnVnDmRBekrULC-1" target="W2uyPhcnVnDmRBekrULC-100" edge="1">
          <mxGeometry relative="1" as="geometry">
            <Array as="points">
              <mxPoint x="280" y="640" />
              <mxPoint x="300" y="640" />
              <mxPoint x="300" y="700" />
              <mxPoint x="297" y="700" />
            </Array>
          </mxGeometry>
        </mxCell>
        <mxCell id="W2uyPhcnVnDmRBekrULC-103" style="edgeStyle=orthogonalEdgeStyle;rounded=0;orthogonalLoop=1;jettySize=auto;html=1;exitX=0.54;exitY=1;exitDx=0;exitDy=0;exitPerimeter=0;entryX=0.13;entryY=-0.005;entryDx=0;entryDy=0;entryPerimeter=0;endArrow=none;endFill=0;" parent="1" source="W2uyPhcnVnDmRBekrULC-1" target="W2uyPhcnVnDmRBekrULC-100" edge="1">
          <mxGeometry relative="1" as="geometry">
            <Array as="points">
              <mxPoint x="304" y="640" />
              <mxPoint x="326" y="640" />
              <mxPoint x="326" y="700" />
            </Array>
          </mxGeometry>
        </mxCell>
        <mxCell id="W2uyPhcnVnDmRBekrULC-104" style="edgeStyle=orthogonalEdgeStyle;rounded=0;orthogonalLoop=1;jettySize=auto;html=1;exitX=0.62;exitY=1;exitDx=0;exitDy=0;exitPerimeter=0;entryX=0.213;entryY=-0.005;entryDx=0;entryDy=0;entryPerimeter=0;endArrow=none;endFill=0;" parent="1" source="W2uyPhcnVnDmRBekrULC-1" target="W2uyPhcnVnDmRBekrULC-100" edge="1">
          <mxGeometry relative="1" as="geometry">
            <Array as="points">
              <mxPoint x="331" y="640" />
              <mxPoint x="350" y="640" />
              <mxPoint x="350" y="700" />
            </Array>
          </mxGeometry>
        </mxCell>
        <mxCell id="W2uyPhcnVnDmRBekrULC-105" style="edgeStyle=orthogonalEdgeStyle;rounded=0;orthogonalLoop=1;jettySize=auto;html=1;exitX=0.69;exitY=1;exitDx=0;exitDy=1;exitPerimeter=0;entryX=0.284;entryY=-0.069;entryDx=0;entryDy=0;entryPerimeter=0;endArrow=none;endFill=0;" parent="1" edge="1">
          <mxGeometry relative="1" as="geometry">
            <Array as="points">
              <mxPoint x="355" y="642.07" />
              <mxPoint x="369" y="642.07" />
            </Array>
            <mxPoint x="354.86349999999993" y="573.07" as="sourcePoint" />
            <mxPoint x="346.79999999999995" y="699.9999999999999" as="targetPoint" />
          </mxGeometry>
        </mxCell>
        <mxCell id="W2uyPhcnVnDmRBekrULC-107" style="edgeStyle=orthogonalEdgeStyle;rounded=0;orthogonalLoop=1;jettySize=auto;html=1;exitX=0.84;exitY=1;exitDx=0;exitDy=0;exitPerimeter=0;endArrow=none;endFill=0;" parent="1" source="W2uyPhcnVnDmRBekrULC-1" edge="1">
          <mxGeometry relative="1" as="geometry">
            <mxPoint x="390" y="700" as="targetPoint" />
            <Array as="points">
              <mxPoint x="406" y="640" />
              <mxPoint x="420" y="640" />
            </Array>
          </mxGeometry>
        </mxCell>
        <mxCell id="W2uyPhcnVnDmRBekrULC-109" style="edgeStyle=orthogonalEdgeStyle;rounded=0;orthogonalLoop=1;jettySize=auto;html=1;exitX=0.956;exitY=1;exitDx=0;exitDy=0;exitPerimeter=0;entryX=0.652;entryY=0.049;entryDx=0;entryDy=0;entryPerimeter=0;endArrow=none;endFill=0;" parent="1" source="W2uyPhcnVnDmRBekrULC-1" edge="1">
          <mxGeometry relative="1" as="geometry">
            <mxPoint x="420.39999999999986" y="699.9699999999998" as="targetPoint" />
            <Array as="points">
              <mxPoint x="450" y="570" />
              <mxPoint x="450" y="639" />
              <mxPoint x="473" y="639" />
              <mxPoint x="473" y="700" />
            </Array>
            <mxPoint x="446.43399999999974" y="568.5" as="sourcePoint" />
          </mxGeometry>
        </mxCell>
        <mxCell id="G3TpQvpC_8L5SOuOtr3R-1" style="edgeStyle=orthogonalEdgeStyle;rounded=0;orthogonalLoop=1;jettySize=auto;html=1;exitX=0.76;exitY=0.99;exitDx=0;exitDy=0;exitPerimeter=0;endArrow=none;endFill=0;" edge="1" parent="1">
          <mxGeometry relative="1" as="geometry">
            <mxPoint x="1189" y="705" as="targetPoint" />
            <Array as="points">
              <mxPoint x="1178" y="645" />
              <mxPoint x="1189" y="645" />
            </Array>
            <mxPoint x="1178" y="573" as="sourcePoint" />
          </mxGeometry>
        </mxCell>
        <mxCell id="G3TpQvpC_8L5SOuOtr3R-2" style="edgeStyle=orthogonalEdgeStyle;rounded=0;orthogonalLoop=1;jettySize=auto;html=1;exitX=0.9;exitY=1;exitDx=0;exitDy=0;exitPerimeter=0;endArrow=none;endFill=0;" edge="1" parent="1" target="G3TpQvpC_8L5SOuOtr3R-3">
          <mxGeometry relative="1" as="geometry">
            <Array as="points">
              <mxPoint x="1225" y="645" />
              <mxPoint x="1239" y="645" />
            </Array>
            <mxPoint x="1225" y="575" as="sourcePoint" />
          </mxGeometry>
        </mxCell>
        <mxCell id="G3TpQvpC_8L5SOuOtr3R-15" style="edgeStyle=orthogonalEdgeStyle;rounded=0;orthogonalLoop=1;jettySize=auto;html=1;exitX=0.5;exitY=1;exitDx=0;exitDy=0;" edge="1" parent="1" source="G3TpQvpC_8L5SOuOtr3R-3">
          <mxGeometry relative="1" as="geometry">
            <mxPoint x="1189.095238095238" y="810" as="targetPoint" />
          </mxGeometry>
        </mxCell>
        <mxCell id="G3TpQvpC_8L5SOuOtr3R-3" value="mux 8 - 1" style="rounded=0;whiteSpace=wrap;html=1;" vertex="1" parent="1">
          <mxGeometry x="1089" y="705" width="200" height="30" as="geometry" />
        </mxCell>
        <mxCell id="G3TpQvpC_8L5SOuOtr3R-4" style="edgeStyle=orthogonalEdgeStyle;rounded=0;orthogonalLoop=1;jettySize=auto;html=1;exitX=0.47;exitY=1;exitDx=0;exitDy=0;exitPerimeter=0;entryX=0.027;entryY=0.005;entryDx=0;entryDy=0;entryPerimeter=0;endArrow=none;endFill=0;" edge="1" parent="1" target="G3TpQvpC_8L5SOuOtr3R-3">
          <mxGeometry relative="1" as="geometry">
            <Array as="points">
              <mxPoint x="1079" y="645" />
              <mxPoint x="1099" y="645" />
              <mxPoint x="1099" y="705" />
              <mxPoint x="1096" y="705" />
            </Array>
            <mxPoint x="1079" y="575" as="sourcePoint" />
          </mxGeometry>
        </mxCell>
        <mxCell id="G3TpQvpC_8L5SOuOtr3R-5" style="edgeStyle=orthogonalEdgeStyle;rounded=0;orthogonalLoop=1;jettySize=auto;html=1;exitX=0.54;exitY=1;exitDx=0;exitDy=0;exitPerimeter=0;entryX=0.13;entryY=-0.005;entryDx=0;entryDy=0;entryPerimeter=0;endArrow=none;endFill=0;" edge="1" parent="1" target="G3TpQvpC_8L5SOuOtr3R-3">
          <mxGeometry relative="1" as="geometry">
            <Array as="points">
              <mxPoint x="1103" y="645" />
              <mxPoint x="1125" y="645" />
              <mxPoint x="1125" y="705" />
            </Array>
            <mxPoint x="1103" y="575" as="sourcePoint" />
          </mxGeometry>
        </mxCell>
        <mxCell id="G3TpQvpC_8L5SOuOtr3R-6" style="edgeStyle=orthogonalEdgeStyle;rounded=0;orthogonalLoop=1;jettySize=auto;html=1;exitX=0.62;exitY=1;exitDx=0;exitDy=0;exitPerimeter=0;entryX=0.213;entryY=-0.005;entryDx=0;entryDy=0;entryPerimeter=0;endArrow=none;endFill=0;" edge="1" parent="1" target="G3TpQvpC_8L5SOuOtr3R-3">
          <mxGeometry relative="1" as="geometry">
            <Array as="points">
              <mxPoint x="1130" y="645" />
              <mxPoint x="1149" y="645" />
              <mxPoint x="1149" y="705" />
            </Array>
            <mxPoint x="1130" y="575" as="sourcePoint" />
          </mxGeometry>
        </mxCell>
        <mxCell id="G3TpQvpC_8L5SOuOtr3R-7" style="edgeStyle=orthogonalEdgeStyle;rounded=0;orthogonalLoop=1;jettySize=auto;html=1;exitX=0.69;exitY=1;exitDx=0;exitDy=1;exitPerimeter=0;entryX=0.284;entryY=-0.069;entryDx=0;entryDy=0;entryPerimeter=0;endArrow=none;endFill=0;" edge="1" parent="1">
          <mxGeometry relative="1" as="geometry">
            <Array as="points">
              <mxPoint x="1154" y="647.07" />
              <mxPoint x="1168" y="647.07" />
            </Array>
            <mxPoint x="1153.8635" y="578.07" as="sourcePoint" />
            <mxPoint x="1145.8" y="704.9999999999999" as="targetPoint" />
          </mxGeometry>
        </mxCell>
        <mxCell id="G3TpQvpC_8L5SOuOtr3R-8" style="edgeStyle=orthogonalEdgeStyle;rounded=0;orthogonalLoop=1;jettySize=auto;html=1;exitX=0.84;exitY=1;exitDx=0;exitDy=0;exitPerimeter=0;endArrow=none;endFill=0;" edge="1" parent="1">
          <mxGeometry relative="1" as="geometry">
            <mxPoint x="1189" y="705" as="targetPoint" />
            <Array as="points">
              <mxPoint x="1205" y="645" />
              <mxPoint x="1219" y="645" />
            </Array>
            <mxPoint x="1205" y="575" as="sourcePoint" />
          </mxGeometry>
        </mxCell>
        <mxCell id="G3TpQvpC_8L5SOuOtr3R-9" style="edgeStyle=orthogonalEdgeStyle;rounded=0;orthogonalLoop=1;jettySize=auto;html=1;exitX=0.956;exitY=1;exitDx=0;exitDy=0;exitPerimeter=0;entryX=0.652;entryY=0.049;entryDx=0;entryDy=0;entryPerimeter=0;endArrow=none;endFill=0;" edge="1" parent="1">
          <mxGeometry relative="1" as="geometry">
            <mxPoint x="1219.3999999999999" y="704.9699999999998" as="targetPoint" />
            <Array as="points">
              <mxPoint x="1249" y="575" />
              <mxPoint x="1249" y="644" />
              <mxPoint x="1272" y="644" />
              <mxPoint x="1272" y="705" />
            </Array>
            <mxPoint x="1244" y="575" as="sourcePoint" />
          </mxGeometry>
        </mxCell>
        <mxCell id="G3TpQvpC_8L5SOuOtr3R-10" style="edgeStyle=orthogonalEdgeStyle;rounded=0;orthogonalLoop=1;jettySize=auto;html=1;entryX=1;entryY=0.5;entryDx=0;entryDy=0;" edge="1" parent="1" source="FgBpNW55SPB5Wy7BsFvd-65" target="G3TpQvpC_8L5SOuOtr3R-3">
          <mxGeometry relative="1" as="geometry">
            <Array as="points">
              <mxPoint x="1309" y="-100" />
              <mxPoint x="1309" y="720" />
            </Array>
          </mxGeometry>
        </mxCell>
      </root>
    </mxGraphModel>
  </diagram>
</mxfile>
